<svg xmlns="http://www.w3.org/2000/svg" xmlns:xlink="http://www.w3.org/1999/xlink" version="1.1" width="700" height="700" viewBox="460,730,700,700"><g id="document" fill-opacity="0" fill="#ffffff" fill-rule="nonzero" stroke="#000000" stroke-width="0" stroke-linecap="butt" stroke-linejoin="miter" stroke-miterlimit="10" stroke-dasharray="" stroke-dashoffset="0" font-family="none" font-weight="none" font-size="none" text-anchor="none"><rect x="460" y="521.42857" transform="scale(1,1.4)" width="700" height="500" id="Shape 1 1" vector-effect="non-scaling-stroke"/></g><g fill="none" fill-rule="nonzero" stroke="none" stroke-width="none" stroke-linecap="none" stroke-linejoin="none" stroke-miterlimit="10" stroke-dasharray="" stroke-dashoffset="0" font-family="none" font-weight="none" font-size="none" text-anchor="none" id="element-77"><g id="stage"><g id="Layer3 1" stroke-width="1" stroke-linecap="round" stroke-linejoin="round"><path d="M732.31515,1033.53505c-44.57426,38.99617 -99.15593,66.87999 -155.98536,83.22391c-16.89693,4.85949 -65.46874,16.0075 -66.12332,-14.67374c-0.48564,-22.76278 25.09115,-39.14539 41.60054,-49.78888c45.8723,-29.57361 96.85679,-51.22951 144.82824,-77.1206" id="Path 1" fill="#1a1a1a" stroke="#1a1a1a"/><path d="" id="element-78" fill="#ff8f00" stroke="#ffffff"/></g><g id="Layer2 1" fill="#1a1a1a" stroke="#1a1a1a" stroke-width="1" stroke-linecap="round" stroke-linejoin="round"><path d="M925.14961,1016.89886c26.4861,-52.97218 66.44257,-99.44958 112.8496,-136.09784c13.79808,-10.89652 54.53026,-39.60867 66.75528,-11.46057c9.06989,20.88342 -8.39766,45.73191 -19.6466,61.83485c-31.25586,44.74302 -70.24162,84.09408 -104.83486,126.22384" id="element-79"/></g><g id="layer1 1"><path d="" id="element-80" fill="none" stroke="#000000" stroke-width="1" stroke-linecap="round" stroke-linejoin="round"/><path d="M820.86719,741.17474c-84.56953,0 -152.5562,67.77378 -152.5562,152.08315c0,83.46903 67.98668,151.24191 152.5562,151.24191c83.73758,0 151.72808,-67.77288 151.72808,-151.24191c0,-84.31773 -67.9905,-152.08315 -151.72808,-152.08315z" id="element-81" fill="#1a1a1a" stroke="none" stroke-width="12.87811" stroke-linecap="butt" stroke-linejoin="miter"/><path d="M830.96268,929.67947c-127.67953,0 -186.06865,107.37857 -186.06865,234.66529c0,126.01803 58.38912,223.28213 186.06865,223.28213c126.42347,0 167.63194,-88.39584 167.63194,-214.41387c0,-127.29937 -41.20849,-243.53355 -167.63194,-243.53355z" id="element-82" fill="#1a1a1a" stroke="#1a1a1a" stroke-width="12.87811" stroke-linecap="butt" stroke-linejoin="miter"/></g><g id="Layer4 1"><path d="M828.89451,948.65329c-77.61917,0 -140.01835,99.53752 -140.01835,223.36037c0,122.58871 65.96318,194.15219 143.58237,194.15219c76.85558,0 135.69425,-71.5635 135.69425,-194.15219c0,-123.83514 -62.40268,-223.36037 -139.25828,-223.36037z" id="element-83" fill="#ffffff" stroke="none" stroke-width="12.87811" stroke-linecap="butt" stroke-linejoin="miter"/><path d="" id="element-84" fill-opacity="0" fill="#ff4878" stroke="#000000" stroke-width="2" stroke-linecap="round" stroke-linejoin="round"/><path d="M713.07019,914.09023c6.72953,0 13.42419,-0.01339 20.1353,-0.56744" id="element-85" fill-opacity="0" fill="#ff4878" stroke="#000000" stroke-width="2" stroke-linecap="round" stroke-linejoin="round"/><path d="M736.52231,925.48124c5.82701,-1.61357 11.6549,-3.19072 17.55785,-4.50434" id="element-86" fill-opacity="0.05" fill="#ff94b0" stroke="#000000" stroke-width="2" stroke-linecap="round" stroke-linejoin="round"/><path d="M721.11092,910.06986c4.72151,-0.1183 9.39051,-0.30562 14.09742,-0.6513" id="element-87" fill="#ff94b0" stroke="#000000" stroke-width="2" stroke-linecap="round" stroke-linejoin="round"/><path d="M725.13127,927.49143c7.44482,-1.56186 14.83402,-3.37371 22.28149,-4.9288" id="element-88" fill="#ff94b0" stroke="#000000" stroke-width="2" stroke-linecap="round" stroke-linejoin="round"/></g><g id="Layer5 1" fill="#ffffff" stroke="none" stroke-width="12.87811" stroke-linecap="butt" stroke-linejoin="miter"><path d="M824.07459,835.79288c-63.75157,0 -115.00237,38.60613 -115.00237,86.63144c0,47.54665 51.2508,86.15224 115.00237,86.15224c63.12441,0 114.37807,-38.60561 114.37807,-86.15224c0,-48.03009 -51.25368,-86.63144 -114.37807,-86.63144z" id="element-89"/><path d="M825.2335,784.70868c-57.80829,0 -104.28123,43.3841 -104.28123,97.35314c0,53.43112 46.47292,96.81463 104.28123,96.81463c57.2396,0 103.71513,-43.38351 103.71513,-96.81463c0,-53.97439 -46.47553,-97.35314 -103.71513,-97.35314z" id="element-90"/></g><g id="Layer6 1"><path d="" id="element-91" fill="#ff9a00" stroke="#ffffff" stroke-width="1" stroke-linecap="round" stroke-linejoin="round"/><path d="M772.11508,1376.18279c-10.90902,-1.88326 -21.50384,6.65065 -23.6648,19.16826c-2.13972,12.39445 4.98054,23.98718 15.88955,25.87048c11.01992,1.90242 21.61388,-6.63226 23.7536,-19.02668c2.16097,-12.51759 -4.9595,-24.10982 -15.97835,-26.01206z" id="element-92" fill="#ff8800" stroke="none" stroke-width="12.87811" stroke-linecap="butt" stroke-linejoin="miter"/><path d="M673.2251,1378.45711c-3.20121,18.54318 19.6383,22.22863 51.56487,27.74027c31.61249,5.45742 60.10692,10.63397 63.30809,-7.90919c3.23376,-18.7317 -19.83499,-38.21734 -51.44747,-43.67474c-31.92657,-5.51164 -60.19205,5.1138 -63.42548,23.84365z" id="element-93" fill="#ff8800" stroke="none" stroke-width="12.87811" stroke-linecap="butt" stroke-linejoin="miter"/><path d="M696.20812,1365.04893c-11.43551,-1.97416 -22.45783,6.48597 -24.6188,19.00356c-2.13972,12.39445 5.40804,24.06099 16.84353,26.03516c11.55176,1.99424 22.57317,-6.46665 24.71287,-18.86108c2.16097,-12.51759 -5.38699,-24.18363 -16.93761,-26.17765z" id="element-94" fill="#ff8800" stroke="none" stroke-width="12.87811" stroke-linecap="butt" stroke-linejoin="miter"/><path d="M709.35922,1393.5283c-2.13972,12.39445 5.83553,24.13479 17.79752,26.19986c12.08362,2.08606 23.53247,-6.30103 25.67219,-18.69547c2.16097,-12.51759 -5.8145,-24.25741 -17.89692,-26.34327c-11.96201,-2.06507 -23.41182,6.32127 -25.57279,18.83888z" id="element-95" fill="#ff8800" stroke="none" stroke-width="12.87811" stroke-linecap="butt" stroke-linejoin="miter"/><path d="M889.06629,1376.63566c-11.37315,1.60398 -19.19613,12.9145 -17.44039,25.36381c1.73846,12.32685 12.38445,21.03325 23.7576,19.42928c11.48877,-1.62027 19.31067,-12.93123 17.5722,-25.25808c-1.75575,-12.44933 -12.40176,-21.15512 -23.88941,-19.53502z" id="element-96" fill="#ff8800" stroke="none" stroke-width="12.87811" stroke-linecap="butt" stroke-linejoin="miter"/><path d="M934.79146,1418.78202c12.01772,-1.69486 20.26473,-13.06579 18.52627,-25.39263c-1.75575,-12.44933 -12.82697,-21.09521 -24.8435,-19.40051c-11.89676,1.67783 -20.14488,13.04832 -18.38915,25.49763c1.73846,12.32685 12.80966,20.97331 24.70638,19.29551z" id="element-97" fill="#ff8800" stroke="none" stroke-width="12.87811" stroke-linecap="butt" stroke-linejoin="miter"/><path d="M947.47087,1389.36225c1.73846,12.32685 11.95929,21.09322 22.80881,19.56311c10.95985,-1.5457 18.3566,-12.79667 16.61816,-25.12352c-1.75575,-12.44933 -11.9766,-21.2151 -22.93537,-19.66958c-10.84953,1.53014 -18.24735,12.78067 -16.4916,25.23z" id="element-98" fill="#ff8800" stroke="none" stroke-width="12.87811" stroke-linecap="butt" stroke-linejoin="miter"/><path d="M924.01206,1354.55166c-31.75246,4.47808 -55.16691,23.05232 -52.53982,41.68001c2.60089,18.44205 25.23786,14.99598 56.99032,10.51788c31.44011,-4.43401 59.85712,-8.18815 57.25621,-26.63017c-2.62735,-18.62957 -30.26662,-30.00175 -61.7067,-25.56772z" id="element-99" fill="#ff8800" stroke="none" stroke-width="12.87811" stroke-linecap="butt" stroke-linejoin="miter"/></g><g id="Layer8 1" fill="#1a1a1a" stroke="#1a1a1a" stroke-width="1" stroke-linecap="round" stroke-linejoin="round"><path d="M758.74043,805.32086c20.67588,-13.75773 46.27283,2.42095 47.04547,29.53952c0.49511,17.37803 -4.66759,33.12785 -3.02012,50.96873c1.31045,14.19117 6.80245,32.36673 24.57891,28.51191c16.64278,-3.609 19.23292,-20.07966 19.87017,-35.11871c0.98209,-23.17705 -10.533,-52.6269 12.88621,-69.57494c3.14254,-2.27418 6.23255,-3.37566 9.90954,-4.67599c5.72522,-1.42983 13.44837,-1.56606 19.13987,0.64837c4.86532,1.89297 9.53808,6.0241 15.09687,3.52066c16.31161,-7.34607 11.11751,-28.75273 -3.21225,-34.24856c-34.71671,-13.31474 -77.50684,-5.98037 -113.92777,-8.54483c-15.76301,-1.1099 -33.59052,-3.48171 -44.86178,9.8594" id="element-100"/></g><g id="Layer7 1"><path d="M826.22657,930.61411c-16.86581,0 -29.63698,-10.52707 -32.05443,-22.60643c0,-16.64634 15.18861,-20.12154 32.05443,-20.12154c16.69988,0 31.80407,3.4752 31.80407,20.12154c-0.38618,10.25044 -15.10418,22.60643 -31.80407,22.60643z" id="element-101" fill="#ff8800" stroke="none" stroke-width="12.87811" stroke-linecap="butt" stroke-linejoin="miter"/><path d="M799.99757,903.91317c7.19363,20.47155 45.08181,20.42941 51.82169,2.32435" id="element-102" fill-opacity="0" fill="#c17508" stroke="#a87100" stroke-width="1" stroke-linecap="round" stroke-linejoin="round"/><path d="" id="element-103" fill="none" stroke="#000000" stroke-width="1" stroke-linecap="round" stroke-linejoin="round"/></g><g id="Layer9 1" fill-opacity="0" fill="#000000" stroke="#000000" stroke-width="1" stroke-linecap="round" stroke-linejoin="round"><path d="M749.93168,875.34707c6.53841,-10.40372 20.34686,-12.22749 30.04363,-0.89745" id="element-104"/><path d="M870.15899,875.34707c6.53841,-10.40372 20.34686,-12.22749 30.04363,-0.89745" id="element-105"/></g><g id="Layer10 1" fill-opacity="0" fill="#000000" stroke="#000000" stroke-width="2" stroke-linecap="round" stroke-linejoin="round"><path d="M739.70174,1356.21124c-9.00596,-1.87902 -28.31138,-3.04517 -37.18929,-0.86902c-13.30836,3.87298 -26.07495,11.22348 -28.98846,26.04163c-4.51443,22.96051 16.99492,40.13029 35.62903,22.53652c7.91818,17.12335 26.75336,22.93805 40.17686,6.93669c7.92513,13.01577 26.63568,13.89971 35.79347,1.37784c6.61024,-9.03849 5.42851,-20.51206 0.66061,-29.92864c-11.15744,-16.03042 -38.32571,-26.01783 -57.14953,-27.50679" id="element-106"/></g><g id="Layer11 1" fill-opacity="0" fill="#000000" stroke="#000000" stroke-width="2" stroke-linecap="round" stroke-linejoin="round"><path d="M987.02012,1388.81666c1.90775,-38.66337 -52.60076,-37.193 -76.36982,-31.36674c-21.04139,7.52681 -48.32421,25.51283 -36.72307,52.0127c7.26124,16.58649 30.85826,15.19301 38.83665,0.28c12.16448,11.16649 35.41554,12.22375 40.5226,-7.43742c13.23781,10.14258 33.05731,5.34971 33.5874,-13.6454" id="element-107"/></g><g id="Layer12 1" stroke="#000000" stroke-linecap="round" stroke-linejoin="round"><path d="" id="element-108" fill="#ffabc5" stroke-width="4"/><path d="" id="element-109" fill="#ffa9c3" stroke-width="4"/><path d="" id="element-110" fill="#ffa9c3" stroke-width="2"/></g></g></g></svg>