<svg xmlns="http://www.w3.org/2000/svg" xmlns:xlink="http://www.w3.org/1999/xlink" version="1.1" width="3179" height="2245" viewBox="-779.5,-42.5,3179,2245"><defs id="element-54"><clipPath id="clip-1"><path d="M-737.33961,2038.49496v-1828.77536h3114.15895v1828.77536z" id="element-55" fill="none" fill-rule="nonzero"/></clipPath></defs><g id="document" fill="#ffffff" fill-rule="nonzero" stroke="#000000" stroke-width="0" stroke-linecap="butt" stroke-linejoin="miter" stroke-miterlimit="10" stroke-dasharray="" stroke-dashoffset="0" font-family="none" font-weight="none" font-size="none" text-anchor="none"><rect x="-171.64203" y="-13.25167" transform="scale(4.54143,3.20714)" width="700" height="700" id="Shape 1 1" vector-effect="non-scaling-stroke"/></g><g fill="none" fill-rule="none" stroke="none" stroke-width="none" stroke-linecap="none" stroke-linejoin="none" stroke-miterlimit="10" stroke-dasharray="" stroke-dashoffset="0" font-family="none" font-weight="none" font-size="none" text-anchor="none" id="element-56"><g id="element-57"><g id="stage"><g id="layer1 1"><g clip-path="url(#clip-1)" id="Group 1" stroke="none" stroke-width="1" stroke-linecap="butt" stroke-linejoin="miter"><path d="M-737.33961,1095.14477c0,-489.00682 396.41835,-885.42518 885.42518,-885.42518c489.00682,0 885.42518,396.41835 885.42518,885.42518c0,489.00682 -396.41835,885.42518 -885.42518,885.42518c-489.00682,0 -885.42518,-396.41835 -885.42518,-885.42518z" id="Shape 1" fill="#f2f2f2" fill-rule="nonzero"/><path d="M-613.21459,1962.64072c0,-41.89314 634.76335,-75.85424 1417.78362,-75.85424c783.02027,0 1417.78362,33.9611 1417.78362,75.85424c0,41.89314 -634.76335,75.85424 -1417.78362,75.85424c-783.02027,0 -1417.78362,-33.9611 -1417.78362,-75.85424z" id="element-58" fill="#3f3d56" fill-rule="nonzero"/><path d="M-467.02289,1939.19494c0,-33.51449 568.07615,-60.68335 1268.83359,-60.68335c700.75744,0 1268.83359,27.16886 1268.83359,60.68335c0,33.51449 -568.07615,60.68335 -1268.83359,60.68335c-700.75744,0 -1268.83359,-27.16886 -1268.83359,-60.68335z" id="element-59" fill="#000000" fill-rule="nonzero" opacity="0.2"/><path d="M-375.99787,768.2822v-137.91669h2317.00046v137.91669z" id="element-60" fill="#3f3d56" fill-rule="nonzero"/><path d="M-375.99787,1889.07573c0,15.85289 6.29752,31.05647 17.5072,42.26617c11.20968,11.20968 26.41328,17.50723 42.26617,17.5072h2197.45372c15.85289,0 31.05647,-6.29752 42.26617,-17.5072c11.20968,-11.20968 17.50723,-26.41328 17.5072,-42.26617v-1189.75188h-2317.00046z" id="Path 1" fill="#3f3d56" fill-rule="nonzero"/><path d="M1881.22922,533.82382h-2197.45372c-15.85289,0 -31.05647,6.29752 -42.26617,17.5072c-11.20968,11.20968 -17.50723,26.41328 -17.5072,42.26617v105.72666h2317.00046v-105.72666c0,-15.85289 -6.29752,-31.05647 -17.5072,-42.26617c-11.20968,-11.20968 -26.41328,-17.50723 -42.26617,-17.5072z" id="element-61" fill="#3f3d56" fill-rule="nonzero"/><path d="M1881.22922,533.82382h-2197.45372c-15.85289,0 -31.05647,6.29752 -42.26617,17.5072c-11.20968,11.20968 -17.50723,26.41328 -17.5072,42.26617v105.72666h2317.00046v-105.72666c0,-15.85289 -6.29752,-31.05647 -17.5072,-42.26617c-11.20968,-11.20968 -26.41328,-17.50723 -42.26617,-17.5072z" id="element-62" fill="#000000" fill-rule="nonzero" opacity="0.2"/><path d="M-273.93952,616.57384c0,-19.80401 16.05433,-35.85834 35.85834,-35.85834c19.80401,0 35.85834,16.05433 35.85834,35.85834c0,19.80401 -16.05433,35.85834 -35.85834,35.85834c-19.80401,0 -35.85834,-16.05433 -35.85834,-35.85834z" id="element-63" fill="#3f3d56" fill-rule="nonzero"/><path d="M-174.6395,616.57384c0,-19.80401 16.05433,-35.85834 35.85834,-35.85834c19.80401,0 35.85834,16.05433 35.85834,35.85834c0,19.80401 -16.05433,35.85834 -35.85834,35.85834c-19.80401,0 -35.85834,-16.05433 -35.85834,-35.85834z" id="element-64" fill="#3f3d56" fill-rule="nonzero"/><path d="M-75.33948,616.57384c0,-19.80401 16.05433,-35.85834 35.85834,-35.85834c19.80401,0 35.85834,16.05433 35.85834,35.85834c0,19.80401 -16.05433,35.85834 -35.85834,35.85834c-19.80401,0 -35.85834,-16.05433 -35.85834,-35.85834z" id="element-65" fill="#3f3d56" fill-rule="nonzero"/><path d="M-259.22367,1863.34075c-8.12734,0 -14.71585,0 -14.71585,0v-1064.71688c0,0 6.58851,0 14.71585,0h900.12682c8.12734,0 14.71585,0 14.71585,0v1064.71688c0,0 -6.58851,0 -14.71585,0z" id="element-66" fill="#606060" fill-rule="nonzero"/><path d="M941.0414,1022.04892c-8.34264,0 -15.10568,0 -15.10568,0v-60.68335c0,0 6.76305,0 15.10568,0h753.15545c8.34264,0 15.10568,0 15.10568,0v60.68335c0,0 -6.76305,0 -15.10568,0z" id="element-67" fill="#2e8555" fill-rule="nonzero"/><path d="M758.99137,1223.40729c-8.34264,0 -15.10568,0 -15.10568,0v-41.37501c0,0 6.76305,0 15.10568,0h1117.25553c8.34264,0 15.10568,0 15.10568,0v41.37501c0,0 -6.76305,0 -15.10568,0z" id="element-68" fill="#2e8555" fill-rule="nonzero"/><path d="M758.99137,1344.77398c-8.34264,0 -15.10568,0 -15.10568,0v-41.37501c0,0 6.76305,0 15.10568,0h1117.25553c8.34264,0 15.10568,0 15.10568,0v41.37501c0,0 -6.76305,0 -15.10568,0z" id="element-69" fill="#2e8555" fill-rule="nonzero"/><path d="M758.99137,1466.14067c-8.34264,0 -15.10568,0 -15.10568,0v-41.37501c0,0 6.76305,0 15.10568,0h1117.25553c8.34264,0 15.10568,0 15.10568,0v41.37501c0,0 -6.76305,0 -15.10568,0z" id="element-70" fill="#2e8555" fill-rule="nonzero"/><path d="M758.99137,1587.50737c-8.34264,0 -15.10568,0 -15.10568,0v-41.37501c0,0 6.76305,0 15.10568,0h1117.25553c8.34264,0 15.10568,0 15.10568,0v41.37501c0,0 -6.76305,0 -15.10568,0z" id="element-71" fill="#2e8555" fill-rule="nonzero"/><path d="M1668.00355,1805.41574c-10.70568,0 -19.38436,0 -19.38436,0v-71.71668c0,0 8.67867,0 19.38436,0h203.96467c10.70568,0 19.38436,0 19.38436,0v71.71668c0,0 -8.67867,0 -19.38436,0z" id="element-72" fill="#3ecc5f" fill-rule="nonzero"/><path d="M2167.46972,1605.75634c7.33924,-12.81045 11.13145,-27.34557 10.9862,-42.10873c0,-38.05541 -23.56605,-68.90541 -52.63607,-68.90541c-29.07003,0 -52.63607,30.85001 -52.63607,68.90541c-0.1452,14.76315 3.64701,29.29825 10.9862,42.10873c-14.6483,26.16172 -14.6483,58.05609 0,84.21781c-14.64824,26.16169 -14.64824,58.05598 0,84.21767c-14.64824,26.16169 -14.64824,58.05598 0,84.21767c-7.33918,12.81047 -11.13139,27.34557 -10.9862,42.10873c0,38.05541 23.56591,68.90541 52.63607,68.90541c29.07016,0 52.63607,-30.85001 52.63607,-68.90541c0.14525,-14.76315 -3.64696,-29.29828 -10.9862,-42.10873c14.64824,-26.16169 14.64824,-58.05598 0,-84.21767c14.64824,-26.16169 14.64824,-58.05598 0,-84.21767c14.6483,-26.16172 14.6483,-58.05609 0,-84.21781z" id="element-73" fill="#3f3d56" fill-rule="nonzero"/><path d="M2073.18374,1479.42986c0,-38.05539 23.56597,-68.90539 52.63607,-68.90539c29.0701,0 52.63607,30.84999 52.63607,68.90539c0,38.05539 -23.56597,68.90539 -52.63607,68.90539c-29.0701,0 -52.63607,-30.84999 -52.63607,-68.90539z" id="element-74" fill="#3f3d56" fill-rule="nonzero"/><path d="M2073.18374,1395.21216c0,-38.05539 23.56597,-68.90539 52.63607,-68.90539c29.0701,0 52.63607,30.84999 52.63607,68.90539c0,38.05539 -23.56597,68.90539 -52.63607,68.90539c-29.0701,0 -52.63607,-30.84999 -52.63607,-68.90539z" id="element-75" fill="#3f3d56" fill-rule="nonzero"/><path d="M2342.46509,790.02882l-138.30562,-22.71463l149.58127,1.11244c29.00063,-63.09813 30.74207,-135.35326 4.81484,-199.77523l-200.68117,104.10335l185.07477,-136.0434c-47.26044,-81.66784 -136.16352,-130.11472 -230.41022,-125.5598c-94.2467,4.55489 -178.0635,61.34923 -217.22817,147.19394c-39.16464,85.84473 -27.12239,186.37251 31.20994,260.53804c-11.20907,14.24892 -20.84953,29.66461 -28.75428,45.97994l179.53057,93.2716l-191.42964,-64.24711c-27.30712,80.72283 -12.01652,169.77567 40.65335,236.76625c-81.29988,103.3612 -69.50441,251.84954 27.09426,341.07902c96.59867,89.22948 245.5548,89.22948 342.15347,0c96.59867,-89.22948 108.39414,-237.71782 27.09426,-341.07902c71.94209,-91.47292 71.94209,-220.29776 0,-311.77067c7.19098,-9.15521 13.74075,-18.79642 19.60238,-28.85471z" id="element-76" fill="#3ecc5f" fill-rule="evenodd"/><path d="M1926.52076,1130.65421c-81.29988,103.3612 -69.50441,251.84954 27.09426,341.07902c96.59867,89.22948 245.5548,89.22948 342.15347,0c96.59867,-89.22948 108.39414,-237.71782 27.09426,-341.07902c33.79265,-42.89993 -450.29859,-184.18341 -450.29859,-155.88534c-0.08705,56.55611 18.9254,111.48471 53.9566,155.88534z" id="element-77" fill="#000000" fill-rule="nonzero" opacity="0.1"/></g><path d="M73.54691,1250.51108c-65.10759,56.95991 -144.83254,97.68853 -227.84069,121.56134c-24.68057,7.09803 -95.6272,23.38142 -96.58331,-21.43326c-0.70935,-33.24855 36.6495,-57.17787 60.76401,-72.72433c67.00357,-43.19681 141.47429,-74.82859 211.544,-112.64652" id="Path 1 1" fill="#1a1a1a" fill-rule="nonzero" stroke="#1a1a1a" stroke-width="1" stroke-linecap="round" stroke-linejoin="round"/><path d="M355.21139,1226.21134c38.68704,-77.37403 97.04963,-145.26144 164.83425,-198.79187c20.15422,-15.91605 79.64986,-57.85457 97.50639,-16.73993c13.24797,30.50345 -12.26608,66.7985 -28.69689,90.31933c-45.65401,65.35408 -102.59872,122.83236 -153.12749,184.36937" id="element-78" fill="#1a1a1a" fill-rule="nonzero" stroke="#1a1a1a" stroke-width="1" stroke-linecap="round" stroke-linejoin="round"/><path d="M202.89082,823.47373c-123.52685,0 -222.83187,98.99406 -222.83187,222.14091c0,121.9194 99.30504,220.91214 222.83187,220.91214c122.31166,0 221.62227,-98.99275 221.62227,-220.91214c0,-123.15905 -99.31062,-222.14091 -221.62227,-222.14091z" id="element-79" fill="#1a1a1a" fill-rule="nonzero" stroke="none" stroke-width="12.87811" stroke-linecap="butt" stroke-linejoin="miter"/><path d="M217.63684,1098.81399c-186.49565,0 -271.78197,156.84297 -271.78197,342.76486c0,184.06878 85.28632,326.138 271.78197,326.138c184.66098,0 244.85231,-129.11576 244.85231,-313.18454c0,-185.94037 -60.19136,-355.71832 -244.85231,-355.71832z" id="element-80" fill="#1a1a1a" fill-rule="nonzero" stroke="#1a1a1a" stroke-width="12.87811" stroke-linecap="butt" stroke-linejoin="miter"/><path d="M10.09757,1452.78043c0,179.05972 96.3494,283.58922 209.72421,283.58922c112.25944,0 198.20239,-104.52953 198.20239,-283.58922c0,-180.88033 -91.14874,-326.25228 -203.40821,-326.25228c-113.37478,0 -204.5184,145.3899 -204.5184,326.25228z" id="element-81" fill="#ffffff" fill-rule="nonzero" stroke="none" stroke-width="12.87811" stroke-linecap="butt" stroke-linejoin="miter"/><path d="M45.43668,1076.04347c9.82952,0 19.6081,-0.01956 29.41071,-0.82882" id="element-82" fill-opacity="0" fill="#ff4878" fill-rule="nonzero" stroke="#000000" stroke-width="2" stroke-linecap="round" stroke-linejoin="round"/><path d="M79.6921,1092.68182c8.51124,-2.35687 17.02377,-4.66054 25.64594,-6.57929" id="element-83" fill-opacity="0.05" fill="#ff94b0" fill-rule="nonzero" stroke="#000000" stroke-width="2" stroke-linecap="round" stroke-linejoin="round"/><path d="M57.18139,1070.17112c6.89649,-0.17279 13.71629,-0.4464 20.59146,-0.95132" id="element-84" fill="#ff94b0" fill-rule="nonzero" stroke="#000000" stroke-width="2" stroke-linecap="round" stroke-linejoin="round"/><path d="M63.05374,1095.61801c10.87431,-2.28134 21.66737,-4.92783 32.54555,-7.19928" id="element-85" fill="#ff94b0" fill-rule="nonzero" stroke="#000000" stroke-width="2" stroke-linecap="round" stroke-linejoin="round"/><path d="M207.57571,961.67812c-93.119,0 -167.9787,56.39021 -167.9787,126.53859c0,69.44922 74.8597,125.83864 167.9787,125.83864c92.20294,0 167.06682,-56.38945 167.06682,-125.83864c0,-70.15536 -74.86391,-126.53859 -167.06682,-126.53859z" id="element-86" fill="#ffffff" fill-rule="nonzero" stroke="none" stroke-width="12.87811" stroke-linecap="butt" stroke-linejoin="miter"/><path d="M209.2685,887.06177c-84.43792,0 -152.31882,63.36917 -152.31882,142.19927c0,78.04439 67.88087,141.4127 152.31882,141.4127c83.60726,0 151.49194,-63.36831 151.49194,-141.4127c0,-78.83792 -67.88468,-142.19927 -151.49194,-142.19927z" id="element-87" fill="#ffffff" fill-rule="nonzero" stroke="none" stroke-width="12.87811" stroke-linecap="butt" stroke-linejoin="miter"/><path d="M131.68084,1751.00096c-15.9343,-2.75079 -31.40967,9.7143 -34.56608,27.9982c-3.12539,18.104 7.27485,35.03697 23.20913,37.78782c16.09629,2.77878 31.5704,-9.68744 34.69579,-27.7914c3.15643,-18.28387 -7.24411,-35.21611 -23.33884,-37.99462z" id="element-88" fill="#ff8800" fill-rule="nonzero" stroke="none" stroke-width="12.87811" stroke-linecap="butt" stroke-linejoin="miter"/><path d="M62.55523,1794.84189c46.17492,7.9714 87.79543,15.53255 92.47124,-11.55259c4.72341,-27.36054 -28.97206,-55.82232 -75.14697,-63.7937c-46.63368,-8.0506 -87.91978,7.46949 -92.6427,34.82733c-4.67586,27.08518 28.68475,32.46836 75.31844,40.51896z" id="element-89" fill="#ff8800" fill-rule="nonzero" stroke="none" stroke-width="12.87811" stroke-linecap="butt" stroke-linejoin="miter"/><path d="M-15.15255,1762.49588c-3.12539,18.10401 7.89928,35.14479 24.60257,38.02837c16.87313,2.9129 32.9716,-9.44554 36.09696,-27.54952c3.15643,-18.28387 -7.86853,-35.32392 -24.73999,-38.2365c-16.70333,-2.88357 -32.80311,9.47377 -35.95954,27.75764z" id="element-90" fill="#ff8800" fill-rule="nonzero" stroke="none" stroke-width="12.87811" stroke-linecap="butt" stroke-linejoin="miter"/><path d="M40.01622,1776.33675c-3.12539,18.104 8.52369,35.25258 25.99602,38.26893c17.64999,3.04701 34.3728,-9.20362 37.4982,-27.30761c3.15643,-18.28387 -8.49297,-35.43168 -26.14121,-38.4784c-17.47236,-3.01635 -34.19658,9.23319 -37.35301,27.51709z" id="element-91" fill="#ff8800" fill-rule="nonzero" stroke="none" stroke-width="12.87811" stroke-linecap="butt" stroke-linejoin="miter"/><path d="M277.03174,1788.71018c2.53929,18.00527 18.0894,30.72231 34.70164,28.37946c16.78112,-2.36665 28.20621,-18.88806 25.66691,-36.89333c-2.56454,-18.18417 -18.11468,-30.90032 -34.89416,-28.53391c-16.61224,2.34286 -28.03891,18.86364 -25.47438,37.04777z" id="element-92" fill="#ff8800" fill-rule="nonzero" stroke="none" stroke-width="12.87811" stroke-linecap="butt" stroke-linejoin="miter"/><path d="M369.29478,1813.2237c17.55373,-2.4756 29.59976,-19.0846 27.06047,-37.08985c-2.56454,-18.18417 -18.73577,-30.81281 -36.28776,-28.33744c-17.37705,2.45073 -29.4247,19.05908 -26.86019,37.24322c2.53929,18.00526 18.71048,30.63475 36.08747,28.18407z" id="element-93" fill="#ff8800" fill-rule="nonzero" stroke="none" stroke-width="12.87811" stroke-linecap="butt" stroke-linejoin="miter"/><path d="M421.1308,1798.82655c16.00855,-2.25773 26.81265,-18.69151 24.27339,-36.69678c-2.56454,-18.18417 -17.49367,-30.98793 -33.50065,-28.73046c-15.84741,2.23501 -26.65307,18.66814 -24.08853,36.85231c2.53929,18.00527 17.46839,30.80989 33.31579,28.57493z" id="element-94" fill="#ff8800" fill-rule="nonzero" stroke="none" stroke-width="12.87811" stroke-linecap="butt" stroke-linejoin="miter"/><path d="M276.8073,1780.28544c3.799,26.93746 36.86379,21.90394 83.24315,15.36299c45.92313,-6.47656 87.43055,-11.96006 83.63152,-38.89747c-3.83765,-27.21136 -44.20907,-43.82218 -90.13215,-37.3456c-46.37936,6.54093 -80.57979,33.67147 -76.74252,60.88008z" id="element-95" fill="#ff8800" fill-rule="nonzero" stroke="none" stroke-width="12.87811" stroke-linecap="butt" stroke-linejoin="miter"/><path d="M112.14507,917.16902c30.20031,-20.09529 67.58861,3.53617 68.71717,43.14702c0.72318,25.38329 -6.81774,48.38833 -4.41135,74.44769c1.91411,20.72839 9.93603,47.2766 35.90129,41.64604c24.30935,-5.2715 28.09265,-29.32944 29.02345,-51.29629c1.43449,-33.85366 -15.38507,-76.8697 18.8223,-101.62493c4.59016,-3.32179 9.1036,-4.93067 14.47441,-6.83c8.36257,-2.08849 19.64342,-2.28747 27.95674,0.94704c7.10655,2.76497 13.93184,8.79913 22.05131,5.14247c23.82562,-10.73007 16.23884,-41.9978 -4.69199,-50.0253c-50.70911,-19.44823 -113.21071,-8.73525 -166.4091,-12.48104c-23.02431,-1.62118 -49.06414,-5.08557 -65.52756,14.40117" id="element-96" fill="#1a1a1a" fill-rule="nonzero" stroke="#1a1a1a" stroke-width="1" stroke-linecap="round" stroke-linejoin="round"/><path d="M210.71903,1100.17917c-24.63512,0 -43.28938,-15.37641 -46.82044,-33.02019c0,-24.31455 22.18531,-29.39062 46.82044,-29.39062c24.39275,0 46.45475,5.07607 46.45475,29.39062c-0.56408,14.97235 -22.06198,33.02019 -46.45475,33.02019z" id="element-97" fill="#ff8800" fill-rule="nonzero" stroke="none" stroke-width="12.87811" stroke-linecap="butt" stroke-linejoin="miter"/><path d="M172.40753,1061.17831c10.50741,29.90186 65.84893,29.84031 75.69356,3.39507" id="element-98" fill-opacity="0" fill="#c17508" fill-rule="nonzero" stroke="#a87100" stroke-width="1" stroke-linecap="round" stroke-linejoin="round"/><path d="M99.27856,1019.45313c9.55036,-15.19624 29.71973,-17.86013 43.88335,-1.31086" id="element-99" fill-opacity="0" fill="#000000" fill-rule="nonzero" stroke="#000000" stroke-width="1" stroke-linecap="round" stroke-linejoin="round"/><path d="M274.8891,1019.45313c9.55036,-15.19624 29.71973,-17.86013 43.88335,-1.31086" id="element-100" fill-opacity="0" fill="#000000" fill-rule="nonzero" stroke="#000000" stroke-width="1" stroke-linecap="round" stroke-linejoin="round"/><path d="M84.33617,1721.82942c-13.15459,-2.7446 -41.35314,-4.44794 -54.32069,-1.26934c-19.43891,5.65708 -38.08649,16.39362 -42.34212,38.03782c-6.59402,33.53737 24.8237,58.61648 52.04169,32.91806c11.56572,25.01129 39.07741,33.50456 58.6845,10.13211c11.57587,19.01154 38.90552,20.30267 52.28188,2.01255c9.65527,-13.20211 7.92918,-29.96103 0.96492,-43.7154c-16.29716,-23.4149 -55.98061,-38.00305 -83.4757,-40.17791" id="element-101" fill-opacity="0" fill="#000000" fill-rule="nonzero" stroke="#000000" stroke-width="2" stroke-linecap="round" stroke-linejoin="round"/><path d="M445.58279,1769.45469c2.78656,-56.47382 -76.83152,-54.32612 -111.5499,-45.81596c-30.73419,10.99407 -70.58496,37.26542 -53.63971,75.97257c10.60616,24.22713 45.07325,22.19174 56.72692,0.40898c17.7681,16.31038 51.72986,17.85467 59.18951,-10.8635c19.33586,14.8148 48.2853,7.81408 49.05958,-19.93121" id="element-102" fill-opacity="0" fill="#000000" fill-rule="nonzero" stroke="#000000" stroke-width="2" stroke-linecap="round" stroke-linejoin="round"/></g></g></g></g></svg>