<svg xmlns="http://www.w3.org/2000/svg" xmlns:xlink="http://www.w3.org/1999/xlink" version="1.1" width="3179" height="2245" viewBox="-779.5,-42.5,3179,2245"><defs id="element-108"><clipPath id="clip-1"><path d="M-766.0583,1919.13763v-1678.71342h3154.44205v1678.71342z" id="element-109" fill="none"/></clipPath></defs><g id="document" fill="#ffffff" fill-rule="nonzero" stroke="#000000" stroke-width="0" stroke-linecap="butt" stroke-linejoin="miter" stroke-miterlimit="10" stroke-dasharray="" stroke-dashoffset="0" font-family="none" font-weight="none" font-size="none" text-anchor="none"><rect x="-171.64203" y="-13.25167" transform="scale(4.54143,3.20714)" width="700" height="700" id="Shape 1 1" vector-effect="non-scaling-stroke"/></g><g fill="none" fill-rule="nonzero" stroke="none" stroke-width="none" stroke-linecap="none" stroke-linejoin="none" stroke-miterlimit="10" stroke-dasharray="" stroke-dashoffset="0" font-family="none" font-weight="none" font-size="none" text-anchor="none" id="element-110"><g id="element-111"><g id="stage"><g id="layer1 1" stroke="none" stroke-width="1" stroke-linecap="butt" stroke-linejoin="miter"><g clip-path="url(#clip-1)" id="Group 1"><g id="element-112"><g id="element-113"><path d="M2146.61358,1567.83051c-3.5141,7.57349 -7.01811,15.04602 -10.51201,22.41754c-5.45292,11.45112 -10.83516,22.6801 -16.14669,33.6869c-2.36293,4.87733 -4.72586,9.66378 -7.0282,14.45023c-26.05282,53.22652 -50.37888,100.30335 -71.03937,139.01906c-38.18544,71.45292 -112.29386,116.39879 -193.30586,117.23769l-459.40815,4.99851h-4.84704l-39.38217,0.42412l-33.6869,0.36353l-103.30246,1.12088h-4.18057l-52.59034,0.57559h-1.60558l-324.14554,3.5141l-289.33777,3.0294l-33.65661,0.36353l-209.02843,2.27205l-135.80789,1.45411h-1.45411l-428.65976,4.63498l-128.2344,1.39352c-10.91895,0.12475 -21.83526,-0.42157 -32.6872,-1.63587c-3.69587,-0.42412 -7.39173,-0.90882 -11.0573,-1.4844c-59.8064,-9.23197 -114.64413,-38.67689 -155.3778,-83.42961c-55.16533,-60.67883 -95.30485,-131.47586 -122.26649,-208.30138c-3.89784,-11.0876 -7.53311,-22.31657 -10.90583,-33.6869c-93.33574,-315.51176 20.44843,-722.57192 225.23571,-994.97535c8.58328,-11.39053 17.30795,-22.49834 26.174,-33.32337l0.21206,-0.24235c62.98118,-77.31023 133.59643,-141.89698 208.81638,-187.82265c133.29349,-81.52109 280.97663,-104.48392 426.23624,-36.04983c122.90266,57.92208 237.65624,85.15637 348.89572,92.5481c11.23907,0.72706 22.47813,1.27235 33.65661,1.60558c255.16616,8.0279 494.30681,-83.91431 775.13197,-143.26021c11.17848,-2.36293 22.38725,-4.69557 33.6869,-6.90703c200.33406,-39.86687 422.57067,-60.89089 686.85532,-16.69198c27.45719,4.48551 54.55112,10.96536 81.06668,19.38814c11.65309,3.75645 22.88204,7.79564 33.6869,12.11759c126.14412,51.318 194.94174,146.13814 224.17542,264.95111c2.76684,11.02701 5.16006,22.24587 7.17967,33.65661c51.83299,285.79337 -99.97012,691.18736 -231.3551,972.5881z" id="Path 1" fill="#f2f2f2"/><path d="M739.57957,1590.24805c-1.22112,11.33104 -3.11277,22.57971 -5.66497,33.6869h283.85456v-33.6869zM502.52921,1780.52452l33.65661,-0.27265v-83.21755c-11.542,-0.515 -22.78107,-1.03 -33.65661,-1.57529zM-203.07808,1590.24805v33.6869h601.33542v-33.6869zM2370.94047,561.70698h-224.17542v-265.042c-10.80486,-4.38254 -22.03381,-8.42173 -33.6869,-12.11759v277.15959h-768.07347v-279.97693c-11.29965,2.21146 -22.50842,4.5441 -33.6869,6.90703v273.0699h-775.13197v-129.80969c-11.17848,-0.33323 -22.41754,-0.87853 -33.65661,-1.60558v131.41527h-775.13197v-187.82265c-75.21994,45.92567 -145.8352,110.51242 -208.81638,187.82265h-0.21206v0.24235c-8.88622,10.90583 -17.61089,22.01363 -26.174,33.32337h26.174v994.97535h-251.44c3.35254,11.37033 6.98782,22.59931 10.90583,33.6869h240.50388v283.6122c12.10069,3.70092 24.45218,6.52556 36.95865,8.45202c3.66557,0.57559 7.36144,1.06029 11.0573,1.4844v0c10.85194,1.2143 21.76825,1.76063 32.6872,1.63587l128.2344,-1.39352v-293.85157h775.25314v285.39955l33.65661,-0.36353v-284.97543h775.13197v276.76577l33.6869,-0.36353v-276.40224h767.922v14.45023c2.30234,-4.78645 4.66527,-9.5729 7.0282,-14.45023c5.31153,-11.0068 10.69377,-22.23578 16.14669,-33.6869c3.4939,-7.35135 6.99791,-14.82384 10.51201,-22.41754v-972.43663h231.50656c-2.03978,-11.4915 -4.43301,-22.72048 -7.17967,-33.6869zM-272.60276,1590.24805v-994.97535h775.13197v994.97535zM536.2464,1590.24805v-994.97535h775.07138v994.97535zM2112.98727,1590.24805h-767.98259v-994.97535h767.922z" id="CompoundPath 1" fill="#000000" opacity="0.1"/><path d="M1848.55115,1856.95622v39.38217l-460.22608,4.24116l-4.90762,0.09088l-174.91742,1.60558l-4.18057,0.06059l-53.16593,0.45441h-1.57529l-324.08496,2.9991l-531.99251,4.93792h-0.45441l-135.2626,1.27235l-1.45411,0.03029l-601.03248,5.5135v-45.44096l141.3214,-84.82313l283.55162,-2.36293l6.0588,-0.03029l1.9994,-0.03029l6.0588,-0.09088l136.14113,-1.12088l6.08909,-0.03029l1.93881,-0.03029l6.0588,-0.03029l43.65362,-0.36353l1.15117,-0.03029l107.69508,-0.90882h0.87853l840.3549,-7.08879l20.56961,-0.15147h2.05999l15.69228,-0.15147l114.05682,-0.93911l6.0588,-0.09088l5.60439,-0.06059h2.90822l35.47425,-0.27265l7.0282,-0.09088l9.42143,-0.06059l29.53663,-0.27265l46.86478,-0.39382l6.0588,-0.06059l10.5423,-0.06059h1.96911l226.3263,-1.93881z" id="element-114" fill="#65617d"/><path d="M1848.55115,1856.95622v39.38217l-460.22608,4.24116l-4.90762,0.09088l-174.91742,1.60558l-4.18057,0.06059l-53.16593,0.45441h-1.57529l-324.08496,2.9991l-531.99251,4.93792h-0.45441l-135.2626,1.27235l-1.45411,0.03029l-601.03248,5.5135v-45.44096l141.3214,-84.82313l283.55162,-2.36293l6.0588,-0.03029l1.9994,-0.03029l6.0588,-0.09088l136.14113,-1.12088l6.08909,-0.03029l1.93881,-0.03029l6.0588,-0.03029l43.65362,-0.36353l1.15117,-0.03029l107.69508,-0.90882h0.87853l840.3549,-7.08879l20.56961,-0.15147h2.05999l15.69228,-0.15147l114.05682,-0.93911l6.0588,-0.09088l5.60439,-0.06059h2.90822l35.47425,-0.27265l7.0282,-0.09088l9.42143,-0.06059l29.53663,-0.27265l46.86478,-0.39382l6.0588,-0.06059l10.5423,-0.06059h1.96911l226.3263,-1.93881z" id="element-115" fill="#000000" opacity="0.2"/><path d="M130.913,1705.51663v74.18995c0.00333,7.17246 -4.1241,13.7056 -10.60289,16.78286c-2.36351,1.14599 -4.94731,1.76611 -7.57349,1.81764l-105.72598,2.24175c-2.82358,0.06771 -5.62411,-0.52351 -8.17937,-1.72676c-6.59648,-3.02349 -10.82274,-9.61737 -10.81495,-16.87374v-76.4317z" id="element-116" fill="#3f3d56"/><path d="M130.913,1705.51663v74.18995c0.00333,7.17246 -4.1241,13.7056 -10.60289,16.78286c-2.36351,1.14599 -4.94731,1.76611 -7.57349,1.81764l-105.72598,2.24175c-2.82358,0.06771 -5.62411,-0.52351 -8.17937,-1.72676c-6.59648,-3.02349 -10.82274,-9.61737 -10.81495,-16.87374v-76.4317z" id="element-117" fill="#000000" opacity="0.1"/><path d="M136.9718,1705.51663v74.18995c0.00333,7.17246 -4.1241,13.7056 -10.60289,16.78286c-2.36351,1.14599 -4.94731,1.76611 -7.57349,1.81764l-105.72598,2.24175c-2.82358,0.06771 -5.62411,-0.52351 -8.17937,-1.72676c-6.59648,-3.02349 -10.82274,-9.61737 -10.81495,-16.87374v-76.4317z" id="element-118" fill="#3f3d56"/><path d="M1296.68579,1800.91236v-95.42602h142.89669v95.42602z" id="Shape 1" fill="#3f3d56"/><path d="M1296.68579,1800.91236v-95.42602h142.89669v95.42602z" id="element-119" fill="#000000" opacity="0.1"/><path d="M1290.62699,1800.91236v-95.42602h142.89669v95.42602z" id="element-120" fill="#3f3d56"/><path d="M136.9415,1705.48634v15.05611l-142.89669,3.81704v-18.87315z" id="element-121" fill="#000000" opacity="0.1"/><path d="M389.16915,1186.58082v509.54468c-0.07622,6.46007 -5.20717,11.72431 -11.66318,11.96612l-580.58405,15.44993c-6.57458,-0.08167 -12.03592,-5.39154 -12.11759,-11.96612v-524.9946c0.08167,-6.57458 5.39154,-11.88445 11.96612,-11.96612h580.43258c6.57458,0.08167 11.88445,5.39154 11.96612,11.96612z" id="element-122" fill="#65617d"/><path d="M-203.07808,1723.54155c-6.57458,-0.08167 -12.03592,-5.39154 -12.11759,-11.96612v-524.9946c0.08167,-6.57458 5.39154,-11.88445 11.96612,-11.96612z" id="element-123" fill="#000000" opacity="0.1"/><path d="M-176.60115,1207.15043h537.71807v449.10819l-537.71807,12.11759z" id="element-124" fill="#39374d"/><path d="M1433.52368,1705.48634v19.41844l-142.89669,-3.81704v-15.6014z" id="element-125" fill="#000000" opacity="0.1"/><path d="M1622.13397,1186.58082v524.9946c-0.08291,6.63314 -5.48394,11.96664 -12.11759,11.96612l-580.70523,-15.44993c-6.45601,-0.24181 -11.58696,-5.50605 -11.66318,-11.96612v-509.54468c0.08167,-6.57458 5.39154,-11.88445 11.96612,-11.96612h580.43258c6.62184,0.01603 12.00453,5.34477 12.0873,11.96612z" id="element-126" fill="#65617d"/><path d="M1622.13397,1186.58082v524.9946c-0.08291,6.63314 -5.48394,11.96664 -12.11759,11.96612v-548.92685c6.63365,-0.00051 12.03468,5.33298 12.11759,11.96612z" id="element-127" fill="#000000" opacity="0.1"/><path d="M1583.47886,1207.15043h-537.71807v449.10819l537.71807,12.11759z" id="element-128" fill="#39374d"/><path d="M1002.62216,1186.58082v509.54468c-0.07622,6.46007 -5.20717,11.72431 -11.66318,11.96612l-580.58405,15.44993c-6.63365,0.00051 -12.03468,-5.33298 -12.11759,-11.96612v-524.9946c0.08167,-6.57458 5.39154,-11.88445 11.96612,-11.96612h580.43258c6.57458,0.08167 11.88445,5.39154 11.96612,11.96612z" id="element-129" fill="#65617d"/><path d="M436.85187,1207.15043h537.71807v449.10819l-537.71807,12.11759z" id="element-130" fill="#4267b2"/><path d="M1848.55115,1856.95622v39.38217l-460.22608,4.24116l-4.90762,0.09088l-174.91742,1.60558l-4.18057,0.06059l-53.16593,0.45441h-1.57529l-324.08496,2.9991l-531.99251,4.93792h-0.45441l-135.2626,1.27235l-1.45411,0.03029l-601.03248,5.5135v-45.44096l613.48331,-4.0291h1.45411l124.17501,-0.84823h0.57559l857.56187,-5.66497h0.87853l0.515,-0.03029h1.42382l14.51081,-0.09088h4.42292l225.65983,-1.5147l13.32935,-0.06059l2.96881,-0.03029z" id="element-131" fill="#000000" opacity="0.1"/><path d="M554.51367,1143.53308c0,-85.87971 69.61926,-155.49898 155.49898,-155.49898c85.87971,0 155.49898,69.61926 155.49898,155.49898c0,85.87971 -69.61926,155.49898 -155.49898,155.49898c-85.87971,0 -155.49898,-69.61926 -155.49898,-155.49898z" id="element-132" fill="#fbbebe"/><path d="M865.54192,1382.88579c0,0 -301.42506,36.35277 -272.64578,0c10.42113,-13.14759 13.29906,-52.10564 12.72347,-96.48631c-0.18176,-13.48082 -0.66647,-27.44634 -1.36323,-41.35128c-3.33234,-66.64675 -11.36024,-131.7788 -11.36024,-131.7788c0,0 263.55759,-124.2053 233.26362,-25.74988c-12.11759,39.77599 -8.14908,95.63808 1.06029,148.07695c2.69616,15.29846 5.81644,30.29398 9.08819,44.53214c7.98467,34.7288 17.742,69.0261 29.23369,102.75717z" id="element-133" fill="#fbbebe"/><path d="M767.17738,1370.55614c34.86837,-6.45262 71.79672,-18.17639 104.6051,-4.66527c8.63378,3.5444 16.5708,8.72467 25.41665,11.69347c8.84584,2.96881 18.53991,3.69587 27.74928,5.78615c32.35397,7.33114 58.58855,31.96014 75.432,60.58795c16.84345,28.62781 25.56812,61.01207 34.11102,93.06309l20.90284,78.24934c18.17639,68.00998 36.35277,136.59554 40.56363,206.90786c-253.05579,14.48516 -506.68959,15.93109 -759.8941,4.33204c16.47992,-31.32397 33.32337,-64.55646 31.92985,-99.97012c-1.39352,-35.41366 -21.78137,-70.34261 -14.41993,-105.24127c4.69557,-22.23578 19.90314,-40.56363 29.20339,-61.25442c26.50723,-59.13384 5.87703,-138.71612 52.46917,-183.73296c20.96343,-20.23638 51.49976,-27.90075 80.67286,-26.93134c37.201,1.24205 75.28053,12.84465 112.08771,18.50962c47.13743,7.14938 91.66957,11.39053 139.17053,2.66587z" id="element-134" fill="#ff6584"/><path d="M1163.42259,1711.66631l-0.515,7.27055l-4.0291,56.07415l-4.87733,67.55557l-1.39352,19.02462l-3.0294,40.7151v0.515l-324.14554,3.0294l-531.93193,5.75586v2.54469h-0.42412v-3.39293l1.36323,-43.50215l2.60528,-85.0049l2.24175,-72.06937l0.21206,-7.17967c0.26786,-8.7579 4.12631,-17.02006 10.66972,-22.84729c6.54344,-5.8272 15.19567,-8.70637 23.926,-7.96168c14.29876,1.21176 32.86896,2.69616 55.07445,4.27145l9.08819,0.66647c128.2344,8.90643 365.22418,20.41814 604.36482,6.0588c5.0288,-0.27265 10.08789,-0.57559 15.14699,-0.93911c37.07983,-2.33264 74.12936,-5.33174 110.81536,-9.08819c9.38816,-0.98365 18.72992,2.24121 25.51198,8.80694c6.78206,6.56573 10.30795,15.79807 9.62903,25.21319z" id="element-135" fill="#000000" opacity="0.1"/><path d="M293.40989,1911.60655l532.02281,-5.78615l324.14554,-3.0294h0.90882v-0.515l3.0294,-40.7151l1.30264,-18.17639l4.96821,-68.49468l3.90792,-54.22622v-1.33293c0.1807,-2.49868 0.06889,-5.0099 -0.33323,-7.48261c-0.83233,-5.11259 -2.91343,-10.24376 -6.0588,-14.35934c-6.78149,-8.69616 -17.57032,-13.2774 -28.53693,-12.11759c-36.686,3.75645 -73.73554,6.75556 -110.81536,9.08819c-5.05909,0.36353 -10.11819,0.66647 -15.14699,0.93911c-239.14065,14.20787 -476.13042,2.69616 -604.36482,-6.0588l-9.08819,-0.66647c-22.20548,-1.57529 -40.77569,-3.0294 -55.07445,-4.27145c-16.29213,-1.37477 -30.99034,9.77965 -34.05043,25.84076c-0.30588,1.64009 -0.48816,3.30083 -0.54529,4.96821l-2.05999,67.13145l-2.81734,85.03519l-1.33293,43.50215v3.39293z" id="element-136" fill="#3f3d56"/><path d="M1164.63435,1728.57035l-3.72616,46.44067l-5.5438,69.22174l-1.39352,17.32815l-3.0294,38.80658l-0.18176,1.93881v0.515l-0.45441,4.48351l0.33323,-4.48351h-0.87853l-324.14554,3.0294l-532.11369,5.75586v-0.84823l1.4844,-43.50215l3.0294,-85.0049l1.93881,-56.49827c0.1937,-6.53023 3.68338,-12.51741 9.26996,-15.90434c3.4304,-2.1024 7.44135,-3.05739 11.45112,-2.72646c6.36173,0.515 14.17758,1.12088 23.29607,1.78734c14.81375,1.09058 33.08102,2.36293 54.34739,3.69587c39.38217,2.48411 88.79164,5.14998 145.41109,7.33114c157.52868,6.0588 370.19239,8.08849 572.19262,-9.60319c9.08819,-0.78764 18.47933,-1.66617 27.6584,-2.54469c3.63331,-0.36235 7.29397,0.33193 10.5423,1.9994c0.92012,0.45829 1.79277,1.00624 2.60528,1.63587c2.63718,1.91085 4.72644,4.48063 6.0588,7.45232c0.309,0.59125 0.56253,1.20988 0.75735,1.84793c0.91012,2.50986 1.28171,5.18321 1.09058,7.84614z" id="element-137" fill="#000000" opacity="0.1"/><path d="M136.9718,1770.0428v9.66378c0.00333,7.17246 -4.1241,13.7056 -10.60289,16.78286l-121.47884,2.33264c-6.59648,-3.02349 -10.82274,-9.61737 -10.81495,-16.87374v-9.08819z" id="element-138" fill="#000000" opacity="0.1"/><path d="M138.4562,1802.18471l-158.28602,3.0294v-26.26488l158.28602,-3.0294z" id="element-139" fill="#3f3d56"/><path d="M138.4562,1802.18471l-158.28602,3.0294v-26.26488l158.28602,-3.0294z" id="element-140" fill="#000000" opacity="0.1"/><path d="M144.515,1802.18471l-158.28602,3.0294v-26.26488l158.28602,-3.0294z" id="element-141" fill="#3f3d56"/><path d="M1291.53581,1776.1016v9.66378c-0.00333,7.17246 4.1241,13.7056 10.60289,16.78286l121.47884,2.33264c6.59648,-3.02349 10.82274,-9.61737 10.81495,-16.87374v-9.08819z" id="element-142" fill="#000000" opacity="0.1"/><path d="M1290.02111,1808.2435l158.28602,3.0294v-26.26488l-158.28602,-3.0294z" id="element-143" fill="#000000" opacity="0.1"/><path d="M1283.96232,1808.2435l158.28602,3.0294v-26.26488l-158.28602,-3.0294z" id="element-144" fill="#3f3d56"/><path d="M611.64811,1191.18551c0.24235,21.20578 -9.5729,41.19981 -17.90374,60.80001c-30.3319,71.3976 -43.4688,148.92176 -38.35217,226.3263c2.21146,33.32337 7.81585,66.64675 2.21146,99.66718c-5.60439,33.02043 -25.53782,65.94999 -57.55855,75.432c53.10534,31.6572 124.99295,28.32487 174.97801,-8.0582c26.6284,-19.38814 46.47096,-46.44067 65.8894,-73.03878c-2.30637,47.77978 -16.14048,94.29188 -40.32128,135.56554c88.39213,-7.8263 169.32048,-52.76571 222.69102,-123.66001c13.0567,-17.6008 24.41694,-36.92836 29.44574,-58.25532c9.36084,-39.38217 -3.69587,-80.30933 -13.66258,-119.66121c-8.32878,-32.89665 -14.57168,-66.28649 -18.69138,-99.97012c-1.30264,-10.78466 -2.36293,-21.87225 0.30294,-32.41455c3.0294,-12.32965 11.11789,-22.75078 17.0858,-33.98984c16.96463,-31.92985 17.35845,-70.58496 8.66408,-105.66539c-8.69437,-35.08042 -25.71959,-67.43439 -42.59333,-99.39454c-13.51111,-25.6287 -28.1734,-52.43887 -52.89328,-67.49498c-15.44993,-9.39113 -33.32337,-13.29906 -51.13623,-17.0858l-76.85582,-16.44963c-16.81316,-3.60498 -34.11102,-7.20997 -51.10594,-4.57439c-28.6884,4.48351 -48.89448,25.20459 -66.64675,46.47096c-13.90494,16.54051 -47.89478,47.59184 -50.288,69.25203c-2.18117,19.96373 15.44993,53.40828 18.44903,74.46259c3.93822,27.26458 6.72526,18.17639 22.1146,34.89866c9.72437,10.36054 15.99522,22.32666 16.17698,36.83747z" id="element-145" fill="#3f3d56"/></g><g id="element-146" fill="#61dafb"><path d="M1445.30501,1439.27499c0,-17.6523 -22.1146,-34.38366 -56.00447,-44.75935c7.8219,-34.53513 4.34416,-62.03297 -10.97248,-70.83337c-3.71195,-2.07835 -7.91291,-3.1244 -12.16606,-3.0294v12.11759c2.15081,-0.06686 4.28281,0.41921 6.19209,1.4117c7.3887,4.24116 10.60289,20.36967 8.09455,41.12104c-0.60588,5.10453 -1.57529,10.48475 -2.76887,15.97098c-11.35355,-2.73606 -22.87659,-4.71356 -34.49272,-5.91944c-6.91954,-9.54545 -14.4684,-18.61847 -22.59628,-27.15855c17.70683,-16.45872 34.32913,-25.47723 45.62879,-25.47723v-12.13274v0c-14.93796,0 -34.49272,10.6453 -54.2656,29.11554c-19.77288,-18.36118 -39.32764,-28.89742 -54.2656,-28.89742v12.11759c11.24512,0 27.91893,8.96399 45.62879,25.31365c-8.08898,8.5107 -15.58416,17.56666 -22.43269,27.10402c-11.63567,1.1927 -23.17492,3.18877 -34.53513,5.97397c-1.24811,-5.43171 -2.17208,-10.69983 -2.8234,-15.75287c-2.55378,-20.75137 0.60588,-36.88292 7.93096,-41.17557c1.91746,-1.02351 4.07536,-1.51118 6.24662,-1.4117v-12.11759v0c-4.28769,-0.09409 -8.52354,0.95126 -12.27512,3.0294c-15.26513,8.78525 -18.68532,36.2316 -10.80889,70.66979c-33.78687,10.43022 -55.78636,27.10402 -55.78636,44.70482c0,17.65533 22.1146,34.38366 56.00447,44.75935c-7.8219,34.53513 -4.34416,62.03297 10.97248,70.83337c3.72916,2.08492 7.94938,3.13109 12.22059,3.0294c14.93796,0 34.49272,-10.6453 54.2656,-29.11554c19.77288,18.36118 39.32764,28.89742 54.2656,28.89742c4.28769,0.09409 8.52354,-0.95126 12.27512,-3.0294c15.26513,-8.78525 18.68532,-36.2316 10.80889,-70.66979c33.65964,-10.36054 55.65912,-27.0919 55.65912,-44.68967zM1374.58069,1403.0434c-2.00849,7.007 -4.50774,14.23817 -7.33417,21.45722c-2.22661,-4.34416 -4.56227,-8.69134 -7.11605,-13.02641c-2.49925,-4.34416 -5.14998,-8.58228 -7.8219,-12.72347c7.71588,1.14208 15.15911,2.55378 22.27516,4.29266zM1349.70328,1460.90489c-4.24116,7.33417 -8.58228,14.28664 -13.09003,20.75137c-8.09455,0.70585 -16.29513,1.08755 -24.53812,1.08755c-8.20361,0 -16.40419,-0.3817 -24.44421,-1.03302c-4.50774,-6.4627 -8.88925,-13.3435 -13.14456,-20.64232c-4.12807,-7.11506 -7.89461,-14.32096 -11.29965,-21.61778c3.36869,-7.27055 7.17058,-14.55626 11.24512,-21.67231c4.24116,-7.33417 8.58228,-14.28664 13.09003,-20.75137c8.09455,-0.70585 16.29513,-1.08755 24.53812,-1.08755c8.20361,0 16.40419,0.3817 24.44421,1.03302c4.50774,6.4627 8.88925,13.3435 13.14456,20.64232c4.12807,7.11506 7.89461,14.32096 11.29965,21.61778c-3.42322,7.26752 -7.17058,14.54414 -11.24512,21.66019zM1367.24955,1453.84337c2.93246,7.27055 5.43171,14.55626 7.49473,21.61778c-7.11605,1.73887 -14.61078,3.2051 -22.37816,4.34416c2.66284,-4.1836 5.32265,-8.48231 7.8219,-12.87494c2.51137,-4.35324 4.83492,-8.75193 7.05547,-13.09912zM1312.16904,1511.78968c-5.32862,-5.53141 -10.36911,-11.33331 -15.10155,-17.38268c4.88945,0.21812 9.88492,0.3817 14.93796,0.3817c5.10453,0 10.15757,-0.10906 15.10155,-0.3817c-4.6623,6.05931 -9.6489,11.862 -14.93796,17.38268zM1271.75688,1479.79622c-7.71285,-1.14208 -15.14699,-2.55378 -22.27213,-4.29266c2.00849,-7.007 4.50774,-14.23817 7.33417,-21.45722c2.22661,4.34416 4.56227,8.69134 7.11605,13.02641c2.55378,4.33507 5.15603,8.5944 7.8219,12.72347zM1311.89639,1366.75727c5.32859,5.53144 10.36911,11.33331 15.10155,17.38268c-4.88945,-0.21812 -9.88492,-0.3817 -14.93796,-0.3817c-5.10756,0 -10.15757,0.10906 -15.10155,0.3817c4.6623,-6.05931 9.6489,-11.862 14.93796,-17.38268zM1271.70235,1398.74468c-2.66284,4.1836 -5.32265,8.48231 -7.8219,12.87494c-2.49925,4.34416 -4.84704,8.69134 -7.06153,13.02641c-2.93246,-7.27055 -5.43171,-14.55626 -7.49473,-21.61778c7.11303,-1.6692 14.61684,-3.13543 22.37816,-4.28357zM1222.54431,1466.75163c-19.23062,-8.20361 -31.66932,-18.95797 -31.66932,-27.48572c0,-8.52775 12.43871,-19.33664 31.66932,-27.48572c4.67133,-2.00849 9.7789,-3.80189 15.04702,-5.48624c3.32273,11.29002 7.4056,22.34226 12.22059,33.08102c-4.764,10.68541 -8.79337,21.68343 -12.06003,32.91743c-5.37718,-1.67526 -10.48475,-3.52319 -15.21061,-5.53168zM1251.76891,1544.37388c-7.3887,-4.24116 -10.60289,-20.36967 -8.09455,-41.12104c0.60588,-5.10756 1.57529,-10.48475 2.76887,-15.97098c11.35355,2.73606 22.87659,4.71356 34.49272,5.91944c6.91951,9.54548 14.46837,18.6185 22.59628,27.15855c-17.70683,16.45872 -34.32913,25.47723 -45.62879,25.47723c-2.13436,0.02802 -4.24264,-0.47147 -6.13756,-1.45411zM1380.61525,1502.98322c2.55378,20.75137 -0.60588,36.88292 -7.93096,41.17557c-1.9174,1.02363 -4.07536,1.51134 -6.24662,1.4117c-11.24512,0 -27.91893,-8.96399 -45.62879,-25.31365c8.08898,-8.5107 15.58416,-17.56666 22.43269,-27.10402c11.63567,-1.1927 23.17492,-3.18877 34.53513,-5.97397c1.22318,5.2175 2.16965,10.49601 2.83552,15.81346zM1401.51809,1466.75163c-4.67133,2.00849 -9.7789,3.80189 -15.04702,5.48624c-3.32273,-11.29002 -7.40557,-22.34226 -12.22059,-33.08102c4.764,-10.68541 8.79337,-21.68343 12.06003,-32.91743c5.37718,1.68435 10.48475,3.52925 15.26513,5.54077c19.23062,8.20361 31.66932,18.95797 31.66932,27.48572c-0.0515,8.53684 -12.49021,19.34573 -31.72082,27.49481z" id="element-147"/><path d="" id="element-148"/><path d="M1287.18257,1439.27196c0,-13.7093 11.11358,-24.82288 24.82288,-24.82288c13.7093,0 24.82288,11.11358 24.82288,24.82288c0,13.7093 -11.11358,24.82288 -24.82288,24.82288c-13.7093,0 -24.82288,-11.11358 -24.82288,-24.82288z" id="element-149"/><path d="" id="element-150"/></g></g></g></g><g id="Layer2 1"><path d="M50.2157,1404.93474c-25.02067,21.88955 -55.65879,37.54148 -87.55862,46.71573c-9.48468,2.72776 -36.74929,8.98544 -37.11672,-8.23675c-0.27262,-12.77733 14.08431,-21.97331 23.35144,-27.9478c25.7493,-16.60043 54.36824,-28.75644 81.29585,-43.28979" id="Path 1 1" fill="#1a1a1a" stroke="#1a1a1a" stroke-width="1" stroke-linecap="round" stroke-linejoin="round"/><path d="M172.52995,1367.58421c32.05624,12.26172 61.13307,32.66137 84.90824,57.34023c7.06901,7.33771 25.94455,29.19523 10.40658,37.84665c-11.5278,6.4186 -26.8518,-2.24174 -36.7784,-7.81318c-27.58168,-15.48057 -52.49348,-35.72575 -78.7579,-53.2797" id="element-151" fill="#1a1a1a" stroke="#1a1a1a" stroke-width="1" stroke-linecap="round" stroke-linejoin="round"/><path d="M100.48113,1238.74802c-47.47105,0 -85.63374,38.04318 -85.63374,85.36821c0,46.85333 38.16268,84.89599 85.63374,84.89599c47.00407,0 85.16891,-38.04266 85.16891,-84.89599c0,-47.32973 -38.16484,-85.36821 -85.16891,-85.36821z" id="element-152" fill="#1a1a1a" stroke="none" stroke-width="12.87811" stroke-linecap="butt" stroke-linejoin="miter"/><path d="M12.61709,1475.55666c0,70.73719 21.86107,126.06166 93.53089,126.06166c70.96476,0 88.27522,-50.3465 88.27522,-121.08369c0,-71.45643 -17.31046,-135.97406 -88.27522,-135.97406c-71.66982,0 -93.53089,59.54678 -93.53089,130.99609z" id="element-153" fill="#1a1a1a" stroke="#1a1a1a" stroke-width="12.87811" stroke-linecap="butt" stroke-linejoin="miter"/><path d="M26.39115,1480.58907c0,68.81222 37.02684,108.98264 80.59649,108.98264c43.14102,0 76.16869,-40.17045 76.16869,-108.98264c0,-69.51186 -35.02823,-125.37795 -78.16927,-125.37795c-43.56964,0 -78.5959,55.873 -78.5959,125.37795z" id="element-154" fill="#ffffff" stroke="none" stroke-width="12.87811" stroke-linecap="butt" stroke-linejoin="miter"/><path d="M39.97188,1335.80998c3.77745,0 7.53535,-0.00751 11.30247,-0.31851" id="element-155" fill-opacity="0" fill="#ff4878" stroke="#000000" stroke-width="2" stroke-linecap="round" stroke-linejoin="round"/><path d="M53.13616,1342.20404c3.27084,-0.90573 6.5422,-1.79104 9.85569,-2.5284" id="element-156" fill-opacity="0.05" fill="#ff94b0" stroke="#000000" stroke-width="2" stroke-linecap="round" stroke-linejoin="round"/><path d="M44.48535,1333.55323c2.6503,-0.0664 5.27112,-0.17155 7.91324,-0.36559" id="element-157" fill="#ff94b0" stroke="#000000" stroke-width="2" stroke-linecap="round" stroke-linejoin="round"/><path d="M46.74207,1343.33243c4.17896,-0.87671 8.32672,-1.89374 12.50717,-2.76666" id="element-158" fill="#ff94b0" stroke="#000000" stroke-width="2" stroke-linecap="round" stroke-linejoin="round"/><path d="M102.28153,1291.85963c-35.7854,0 -64.5538,21.67061 -64.5538,48.62847c0,26.68917 28.7684,48.35949 64.5538,48.35949c35.43338,0 64.20336,-21.67034 64.20336,-48.35949c0,-26.96052 -28.77001,-48.62847 -64.20336,-48.62847z" id="element-159" fill="#ffffff" stroke="none" stroke-width="12.87811" stroke-linecap="butt" stroke-linejoin="miter"/><path d="M102.93206,1263.18474c-32.4493,0 -58.53575,24.35263 -58.53575,54.64685c0,29.99228 26.08645,54.34455 58.53575,54.34455c32.13006,0 58.21799,-24.3523 58.21799,-54.34455c0,-30.29722 -26.08793,-54.64685 -58.21799,-54.64685z" id="element-160" fill="#ffffff" stroke="none" stroke-width="12.87811" stroke-linecap="butt" stroke-linejoin="miter"/><path d="M73.11531,1595.19448c-6.1235,-1.05711 -12.07067,3.73319 -13.28367,10.75963c-1.20107,6.95731 2.79571,13.46461 8.91921,14.52178c6.18576,1.06786 12.13243,-3.72286 13.3335,-10.68017c1.213,-7.02645 -2.7839,-13.53347 -8.96905,-14.60124z" id="element-161" fill="#ff8800" stroke="none" stroke-width="12.87811" stroke-linecap="butt" stroke-linejoin="miter"/><path d="M46.55049,1612.04245c17.74491,3.06339 33.73958,5.96913 35.53647,-4.43964c1.81518,-10.51458 -11.13388,-21.45238 -28.87879,-24.51576c-17.92122,-3.09383 -33.78736,2.87051 -35.60236,13.38406c-1.79692,10.40877 11.02349,12.47751 28.94468,15.57135z" id="element-162" fill="#ff8800" stroke="none" stroke-width="12.87811" stroke-linecap="butt" stroke-linejoin="miter"/><path d="M26.14232,1614.22616c6.4843,1.11942 12.67091,-3.62988 13.87198,-10.5872c1.213,-7.02645 -3.02385,-13.57491 -9.50752,-14.69418c-6.41905,-1.10815 -12.60614,3.64076 -13.81917,10.66721c-1.20107,6.95731 3.03567,13.50602 9.45472,14.61418z" id="element-163" fill="#ff8800" stroke="none" stroke-width="12.87811" stroke-linecap="butt" stroke-linejoin="miter"/><path d="M47.879,1619.63763c6.78285,1.17095 13.20939,-3.53694 14.41045,-10.49426c1.213,-7.02645 -3.26384,-13.61632 -10.046,-14.78716c-6.7146,-1.15917 -13.14165,3.5483 -14.35468,10.57475c-1.20107,6.95731 3.27566,13.5475 9.99023,14.70667z" id="element-164" fill="#ff8800" stroke="none" stroke-width="12.87811" stroke-linecap="butt" stroke-linejoin="miter"/><path d="M142.30905,1620.59223c6.44895,-0.90949 10.83958,-7.25865 9.86372,-14.178c-0.98555,-6.98812 -6.96143,-11.87491 -13.40975,-10.96551c-6.38403,0.90037 -10.77529,7.24926 -9.78974,14.23738c0.97583,6.91939 6.95174,11.80647 13.33577,10.90613z" id="element-165" fill="#ff8800" stroke="none" stroke-width="12.87811" stroke-linecap="butt" stroke-linejoin="miter"/><path d="M174.82906,1604.85302c-0.98555,-6.98812 -7.20012,-11.84128 -13.94529,-10.89002c-6.67797,0.94181 -11.30783,7.32436 -10.32231,14.31248c0.97583,6.91939 7.1904,11.77288 13.86834,10.83107c6.74586,-0.95138 11.37509,-7.33417 10.39926,-14.25353z" id="element-166" fill="#ff8800" stroke="none" stroke-width="12.87811" stroke-linecap="butt" stroke-linejoin="miter"/><path d="M184.35021,1613.57375c6.15204,-0.86765 10.30404,-7.1831 9.32821,-14.10248c-0.98555,-6.98812 -6.72278,-11.90859 -12.87421,-11.04103c-6.09012,0.85889 -10.2427,7.17413 -9.25717,14.16225c0.97583,6.91939 6.71305,11.84016 12.80317,10.98126z" id="element-167" fill="#ff8800" stroke="none" stroke-width="12.87811" stroke-linecap="butt" stroke-linejoin="miter"/><path d="M128.88706,1606.44845c1.45996,10.352 14.16667,8.41764 31.99014,5.90396c17.64815,-2.48892 33.59935,-4.59623 32.13939,-14.9482c-1.4748,-10.45727 -16.98944,-16.84075 -34.63756,-14.35183c-17.82349,2.51367 -30.96662,12.93986 -29.49197,23.39607z" id="element-168" fill="#ff8800" stroke="none" stroke-width="12.87811" stroke-linecap="butt" stroke-linejoin="miter"/><path d="M65.60776,1274.75492c11.60589,-7.72257 25.97415,1.35893 26.40783,16.58129c0.27792,9.75475 -2.62004,18.59553 -1.69528,28.61006c0.7356,7.96586 3.8184,18.1683 13.79679,16.00446c9.34203,-2.02582 10.79592,-11.27124 11.15364,-19.71305c0.55126,-13.00987 -5.91245,-29.54084 7.23335,-39.05421c1.76399,-1.27656 3.4985,-1.89486 5.56249,-2.62476c3.21371,-0.80261 7.54893,-0.87907 10.7437,0.36395c2.73103,1.06256 5.35398,3.38147 8.47426,1.97623c9.15614,-4.12353 6.24056,-16.13966 -1.80313,-19.22462c-19.48739,-7.47392 -43.5066,-3.35694 -63.95061,-4.79645c-8.84817,-0.62303 -18.85521,-1.95439 -25.18208,5.53435" id="element-169" fill="#1a1a1a" stroke="#1a1a1a" stroke-width="1" stroke-linecap="round" stroke-linejoin="round"/><path d="M103.48947,1345.08527c-9.4672,0 -16.636,-5.90911 -17.99299,-12.68957c0,-9.34403 8.52575,-11.29475 17.99299,-11.29475c9.37408,0 17.85245,1.95072 17.85245,11.29475c-0.21678,5.75383 -8.47838,12.68957 -17.85245,12.68957z" id="element-170" fill="#ff8800" stroke="none" stroke-width="12.87811" stroke-linecap="butt" stroke-linejoin="miter"/><path d="M88.76648,1330.09732c4.03797,11.4912 25.30559,11.46754 29.08885,1.30473" id="element-171" fill-opacity="0" fill="#c17508" stroke="#a87100" stroke-width="1" stroke-linecap="round" stroke-linejoin="round"/><path d="M60.66318,1314.06245c3.67018,-5.83989 11.42122,-6.86362 16.86426,-0.50376" id="element-172" fill-opacity="0" fill="#000000" stroke="#000000" stroke-width="1" stroke-linecap="round" stroke-linejoin="round"/><path d="M128.14989,1314.06245c3.67018,-5.83989 11.42122,-6.86362 16.86426,-0.50376" id="element-173" fill-opacity="0" fill="#000000" stroke="#000000" stroke-width="1" stroke-linecap="round" stroke-linejoin="round"/><path d="M54.92087,1583.98392c-5.05528,-1.05475 -15.89192,-1.70934 -20.87531,-0.48779c-7.47031,2.17402 -14.63653,6.30003 -16.27199,14.61784c-2.53406,12.88833 9.53969,22.52618 19.99951,12.65034c4.44467,9.61179 15.01736,12.87573 22.55232,3.89375c4.44858,7.30609 14.95129,7.80227 20.09181,0.77341c3.7105,-5.07354 3.04715,-11.51395 0.37083,-16.79971c-6.26295,-8.99828 -21.51321,-14.60448 -32.0795,-15.44026" id="element-174" fill-opacity="0" fill="#000000" stroke="#000000" stroke-width="2" stroke-linecap="round" stroke-linejoin="round"/><path d="M150.8787,1584.67926c-11.81108,4.22498 -27.12562,14.32102 -20.6136,29.19606c4.07593,9.31043 17.32155,8.52824 21.80003,0.15717c6.82823,6.26804 19.87966,6.86149 22.74638,-4.17481c7.43072,5.6933 18.55591,3.00292 18.85349,-7.65953c1.07086,-21.70276 -29.44411,-20.78933 -42.7863,-17.51889z" id="element-175" fill-opacity="0" fill="#000000" stroke="#000000" stroke-width="2" stroke-linecap="round" stroke-linejoin="round"/></g></g></g></g></svg>