<svg xmlns="http://www.w3.org/2000/svg" xmlns:xlink="http://www.w3.org/1999/xlink" version="1.1" width="3179" height="2245" viewBox="-779.5,-42.5,3179,2245"><defs id="element-190"><clipPath id="clip-1"><path d="M-750.20981,2068.92884v-1969.97862h3115.4871v1969.97862z" id="element-191" fill="none" fill-rule="nonzero"/></clipPath></defs><g id="document" fill-opacity="0" fill="#ffffff" fill-rule="nonzero" stroke="#000000" stroke-width="0" stroke-linecap="butt" stroke-linejoin="miter" stroke-miterlimit="10" stroke-dasharray="" stroke-dashoffset="0" font-family="none" font-weight="none" font-size="none" text-anchor="none"><rect x="-171.64203" y="-13.25167" transform="scale(4.54143,3.20714)" width="700" height="700" id="Shape 1 1" vector-effect="non-scaling-stroke"/></g><g fill="none" fill-rule="none" stroke="none" stroke-width="none" stroke-linecap="none" stroke-linejoin="none" stroke-miterlimit="10" stroke-dasharray="" stroke-dashoffset="0" font-family="none" font-weight="none" font-size="none" text-anchor="none" id="element-192"><g id="element-193"><g id="stage"><g id="layer1 1" stroke="none" stroke-width="1" stroke-linecap="butt" stroke-linejoin="miter"><g clip-path="url(#clip-1)" id="Group 1"><g id="element-194"><g id="element-195" fill-rule="nonzero"><path d="M1914.44797,1716.11711c-57.26998,110.30199 -155.23029,154.7435 -242.73882,201.24672c-25.28696,13.413 -51.5764,24.84403 -78.63169,34.19018c-159.23919,55.26553 -337.46338,40.60442 -477.45985,11.42536c-98.19102,-20.4835 -197.86232,-33.08484 -298.06163,-37.68365c-28.57772,-1.28857 -57.18408,-1.92808 -85.81907,-1.91854c-44.15516,0.05727 -839.2057,15.14791 -1032.77825,-376.75059c-47.7918,-96.67173 -80.55023,-214.76244 -92.31921,-358.71054c-33.3025,-406.9605 149.73237,-674.23951 385.82788,-848.9416c446.61997,-330.47644 1058.80745,-316.6171 1498.84137,22.56437c293.10778,225.93008 567.54554,567.86052 512.62362,1038.70569c-15.09064,129.28699 -46.44596,233.08884 -89.48435,315.8726z" id="Path 1" fill="#3f3d56"/><path d="M1914.44797,1716.11711c-57.26998,110.30199 -135.1858,183.37849 -222.69433,229.88171c-25.28696,13.41303 -51.5764,24.84406 -78.63169,34.19018c-159.23919,55.26553 -337.46338,40.60442 -477.45985,11.42536c-98.19105,-20.48327 -197.86235,-33.08464 -298.06163,-37.68365c-28.57772,-1.28857 -57.18408,-1.92808 -85.81907,-1.91854c-44.15516,0.05727 -88.30078,1.699 -132.43684,4.92522c-286.83671,21.07535 -726.81336,-18.4123 -920.3859,-410.3108l484.33225,-938.08233l180.25727,462.79587l57.5277,147.72792l158.55195,-217.56867l81.86744,-112.33221l372.82759,427.43452l105.37677,-232.71658l729.56232,595.37588l40.69032,33.18796z" id="element-196" fill="#f2f2f2"/><path d="M114.56694,909.21168l74.45098,-163.21945l103.08597,237.67043l-88.76847,-171.80995z" id="element-197" fill="#000000" opacity="0.1"/><path d="M837.60048,1953.93072c-28.57772,-1.28857 -57.18408,-1.92808 -85.81907,-1.91854l-330.70552,-732.94125z" id="element-198" fill="#000000" opacity="0.1"/><path d="M579.6307,1001.49939l81.86458,-63.65272l372.25489,429.52488l-377.98189,-366.52789z" id="element-199" fill="#000000" opacity="0.1"/><path d="M1691.75364,1945.99882c-25.2869,13.41309 -51.57637,24.84412 -78.63169,34.19018l-578.79909,-663.5873z" id="element-200" fill="#000000" opacity="0.1"/><path d="M621.40629,390.91833c0,-4.7444 3.8461,-8.5905 8.5905,-8.5905c4.7444,0 8.5905,3.8461 8.5905,8.5905c0,4.7444 -3.8461,8.5905 -8.5905,8.5905c-4.7444,0 -8.5905,-3.8461 -8.5905,-8.5905z" id="Shape 1" fill="#f2f2f2"/><path d="M383.73586,685.85874c0,-4.7444 3.8461,-8.5905 8.5905,-8.5905c4.7444,0 8.5905,3.8461 8.5905,8.5905c0,4.7444 -3.8461,8.5905 -8.5905,8.5905c-4.7444,0 -8.5905,-3.8461 -8.5905,-8.5905z" id="element-201" fill="#f2f2f2"/><path d="M967.88969,737.40173c0,-3.16293 2.56406,-5.727 5.727,-5.727c3.16293,0 5.727,2.56406 5.727,5.727c0,3.16293 -2.56406,5.727 -5.727,5.727c-3.16293,0 -5.727,-2.56406 -5.727,-5.727z" id="element-202" fill="#f2f2f2"/><path d="M-234.77996,866.25919c0,-3.16293 2.56406,-5.727 5.727,-5.727c3.16293,0 5.727,2.56406 5.727,5.727c0,3.16293 -2.56406,5.727 -5.727,5.727c-3.16293,0 -5.727,-2.56406 -5.727,-5.727z" id="element-203" fill="#f2f2f2"/><path d="M1002.25168,382.32783c0,-3.16293 2.56406,-5.727 5.727,-5.727c3.16293,0 5.727,2.56406 5.727,5.727c0,3.16293 -2.56406,5.727 -5.727,5.727c-3.16293,0 -5.727,-2.56406 -5.727,-5.727z" id="element-204" fill="#f2f2f2"/><path d="M1357.32558,657.22375c0,-3.16293 2.56406,-5.727 5.727,-5.727c3.16293,0 5.727,2.56406 5.727,5.727c0,3.16293 -2.56406,5.727 -5.727,5.727c-3.16293,0 -5.727,-2.56406 -5.727,-5.727z" id="element-205" fill="#f2f2f2"/><path d="M1706.67247,1092.47563c0,-3.16293 2.56406,-5.727 5.727,-5.727c3.16293,0 5.727,2.56406 5.727,5.727c0,3.16293 -2.56406,5.727 -5.727,5.727c-3.16293,0 -5.727,-2.56406 -5.727,-5.727z" id="element-206" fill="#f2f2f2"/><path d="M126.02093,446.06932h-7.90326v-7.90326h-4.23798v7.90326h-7.90326v4.23225h7.90326v7.90039h4.23798v-7.90039h7.90326z" id="element-207" fill="#f2f2f2"/><path d="M1678.03748,1313.70957h-7.90326v-7.90326h-4.23798v7.90326h-7.90326v4.23225h7.90326v7.90039h4.23798v-7.90039h7.90326z" id="element-208" fill="#f2f2f2"/><path d="M2365.27728,1857.02991c0,47.44532 -697.42527,211.89894 -1557.74355,211.89894c-860.31828,0 -1557.74355,-164.45362 -1557.74355,-211.89894c0,-47.44532 697.42527,40.08899 1557.74355,40.08899c860.31828,0 1557.74355,-87.53144 1557.74355,-40.08899z" id="element-209" fill="#3f3d56"/><path d="M2365.27728,1857.02991c0,47.44532 -697.42527,211.89894 -1557.74355,211.89894c-860.31828,0 -1557.74355,-164.45362 -1557.74355,-211.89894c0,-47.44532 697.42527,40.08899 1557.74355,40.08899c860.31828,0 1557.74355,-87.53144 1557.74355,-40.08899z" id="element-210" fill="#000000" opacity="0.1"/><path d="M-750.20981,1857.02991c0,-47.44401 697.42554,-85.90498 1557.74355,-85.90498c860.31801,0 1557.74355,38.46097 1557.74355,85.90498c0,47.44401 -697.42554,85.90498 -1557.74355,85.90498c-860.31801,0 -1557.74355,-38.46097 -1557.74355,-85.90498z" id="element-211" fill="#3f3d56"/><path d="M876.25772,1736.76294c0,94.88777 -42.3082,68.72398 -94.49547,68.72398c-52.18727,0 -94.49547,26.16379 -94.49547,-68.72398c0,-94.88777 94.49547,-274.89592 94.49547,-274.89592c0,0 94.49547,180.00815 94.49547,274.89592z" id="element-212" fill="#ff6584"/><path d="M824.71473,1773.06925c0,43.13002 -19.23126,31.23791 -42.95249,31.23791c-23.72123,0 -42.95249,11.89211 -42.95249,-31.23791c0,-43.13002 42.95249,-124.95165 42.95249,-124.95165c0,0 42.95249,81.82735 42.95249,124.95165z" id="element-213" fill="#000000" opacity="0.1"/><path d="M675.81277,1882.8014c-14.2332,0 -25.77149,0 -25.77149,0v-51.54299c0,0 11.53829,0 25.77149,0h211.89894c14.2332,0 25.77149,0 25.77149,0v51.54299c0,0 -11.53829,0 -25.77149,0z" id="element-214" fill="#2f2e41"/><path d="M675.81277,1831.25841c-14.2332,0 -25.77149,0 -25.77149,0v-51.54299c0,0 11.53829,0 25.77149,0h211.89894c14.2332,0 25.77149,0 25.77149,0v51.54299c0,0 -11.53829,0 -25.77149,0z" id="element-215" fill="#2f2e41"/><path d="M-357.91043,1503.57675c0,158.47463 99.41783,286.71072 222.28199,286.71072" id="element-216" fill="#3f3d56"/><path d="M-135.62844,1790.28747c0,-160.25573 110.94628,-289.93215 248.05348,-289.93215" id="element-217" fill="#6c63ff"/><path d="M-277.37451,1517.94292c0,150.53415 63.39787,272.34454 141.74321,272.34454" id="element-218" fill="#6c63ff"/><path d="M-135.62844,1790.28747c0,-204.77169 128.23608,-370.47093 286.71072,-370.47093" id="element-219" fill="#3f3d56"/><path d="M-182.37793,1792.3091c0,0 31.52426,-0.97073 41.02249,-7.73145c9.49823,-6.76072 48.49049,-14.84152 50.84715,-3.99458c2.35666,10.84693 47.37373,53.95978 11.7833,54.24899c-35.59043,0.28921 -82.69499,-5.54373 -92.17604,-11.31941c-9.48105,-5.77568 -11.4769,-31.20355 -11.4769,-31.20355z" id="element-220" fill="#a8a8a8"/><path d="M-78.10074,1831.05224c-35.59043,0.28635 -82.69499,-5.54373 -92.17604,-11.31941c-7.22174,-4.39833 -10.09956,-20.18194 -11.0617,-27.46382l-1.05377,0.04009c0,0 2.00445,25.42501 11.47977,31.21214c9.47532,5.78713 56.58561,11.60576 92.17604,11.31941c10.27424,-0.08304 13.82211,-3.73687 13.62739,-9.1632c-1.42602,3.27012 -5.34615,5.31179 -12.9917,5.37479z" id="element-221" fill="#000000" opacity="0.2"/><path d="M1315.60153,1608.19183c0,108.89601 68.3145,197.00874 152.74191,197.00874" id="element-222" fill="#3f3d56"/><path d="M1468.34058,1805.20343c0,-110.11872 76.23494,-199.22795 170.44979,-199.22795" id="element-223" fill="#6c63ff"/><path d="M1370.94151,1618.06231c0,103.44104 43.56241,187.14112 97.39906,187.14112" id="element-224" fill="#6c63ff"/><path d="M1468.34058,1805.20343c0,-140.70949 88.11846,-254.56508 197.00874,-254.56508" id="element-225" fill="#3f3d56"/><path d="M1436.20925,1806.59223c0,0 21.66237,-0.6672 28.18829,-5.31465c6.52591,-4.64746 33.31968,-10.19978 34.93469,-2.74323c1.61501,7.45655 32.55226,37.07945 8.09798,37.27703c-24.45428,0.19758 -56.82328,-3.80845 -63.33774,-7.77726c-6.51446,-3.96881 -7.88321,-21.44188 -7.88321,-21.44188z" id="element-226" fill="#a8a8a8"/><path d="M1507.87118,1833.21418c-24.45428,0.19758 -56.82328,-3.80845 -63.33774,-7.77726c-4.96244,-3.02386 -6.93826,-13.86793 -7.59973,-18.87046l-0.72447,0.02863c0,0 1.37162,17.46734 7.88894,21.43902c6.51732,3.97167 38.88346,7.97485 63.33774,7.77726c7.05853,-0.05727 9.49823,-2.57715 9.36364,-6.2997c-0.98218,2.25644 -3.67387,3.65955 -8.92839,3.7025z" id="element-227" fill="#000000" opacity="0.2"/><path d="M1809.22297,1870.5943c0,0 32.52935,-4.95099 41.52074,-13.14632c8.99139,-8.19533 48.3645,-21.44188 52.16436,-10.50045c3.79986,10.94143 55.82105,49.95947 18.99359,54.71288c-36.82746,4.75341 -86.34309,4.60737 -96.88649,-0.18613c-10.5434,-4.7935 -15.7922,-30.87998 -15.7922,-30.87998z" id="element-228" fill="#a8a8a8"/><path d="M1922.08779,1897.66869c-36.8246,4.75055 -86.34309,4.60737 -96.88649,-0.18613c-8.0178,-3.65096 -12.98597,-19.63788 -14.8902,-27.06007l-1.08527,0.17467c0,0 5.24879,26.08361 15.79506,30.87711c10.54627,4.7935 60.0619,4.93954 96.88649,0.18613c10.62931,-1.37162 13.84788,-5.601 12.96879,-11.18483c-1.07381,3.56792 -4.87654,6.1737 -12.78839,7.19311z" id="element-229" fill="#000000" opacity="0.2"/><path d="M1008.72319,1868.25196c0,0 27.45237,-4.17785 35.04064,-11.09606c7.58827,-6.91821 40.81918,-18.09731 44.02344,-8.86253c3.20426,9.23478 47.11029,42.16503 16.0356,46.17392c-31.07469,4.0089 -72.87033,3.88863 -81.76722,-0.15749c-8.89689,-4.04612 -13.33245,-26.05784 -13.33245,-26.05784z" id="element-230" fill="#a8a8a8"/><path d="M1103.97462,1891.08836c-31.07756,4.0089 -72.87033,3.88863 -81.76722,-0.15749c-6.7779,-3.08113 -10.95861,-16.57393 -12.57076,-22.83927l-0.91632,0.14604c0,0 4.42983,22.01172 13.32959,26.05784c8.89976,4.04612 50.68394,4.16925 81.76722,0.15749c8.97134,-1.1454 11.68594,-4.72764 10.94429,-9.44955c-0.89914,3.02672 -4.10912,5.22589 -10.7868,6.08494z" id="element-231" fill="#000000" opacity="0.2"/><path d="M-399.74901,1854.53293c0,0 21.37029,-3.25294 27.28056,-8.63631c5.91026,-5.38338 31.78484,-14.08842 34.27322,-6.89817c2.48838,7.19025 36.6757,32.82429 12.47913,35.94551c-24.19657,3.12121 -56.72878,3.02672 -63.65559,-0.12313c-6.9268,-3.14985 -10.37732,-20.28789 -10.37732,-20.28789z" id="element-232" fill="#a8a8a8"/><path d="M-325.59584,1872.32099c-24.1937,3.12121 -56.72878,3.02672 -63.65559,-0.12313c-5.27457,-2.39961 -8.53036,-12.90293 -9.78458,-17.77947l-0.71301,0.11454c0,0 3.4362,17.13518 10.37732,20.28789c6.94112,3.15271 39.46188,3.24434 63.65559,0.12313c6.98407,-0.902 9.09734,-3.6796 8.52177,-7.34774c-0.70442,2.34234 -3.20426,4.05471 -8.40151,4.72477z" id="element-233" fill="#000000" opacity="0.2"/><path d="M348.51482,1820.82382c0,86.53494 -120.62204,59.76982 -268.30987,59.76982c-147.68783,0 -266.51732,26.76513 -266.51732,-59.76982c0,-86.53494 120.60486,-105.35672 268.29269,-105.35672c147.68783,0 266.5345,18.82178 266.5345,105.35672z" id="element-234" fill="#000000" opacity="0.1"/><path d="M348.51482,1799.52798c0,86.53494 -120.62204,59.76982 -268.30987,59.76982c-147.68783,0 -266.51732,26.76513 -266.51732,-59.76982c0,-86.53494 120.5934,-105.37677 268.28124,-105.37677c147.68783,0 266.54596,18.83037 266.54596,105.37677z" id="element-235" fill="#3f3d56"/></g><g id="element-236" fill="#000000" fill-rule="evenodd"><path d="M1873.9839,2605.24423h-156.579c-1.72855,0 -3.1298,-1.40125 -3.1298,-3.1298c0,-1.72855 1.40125,-3.1298 3.1298,-3.1298h156.579c1.72855,0 3.1298,1.40125 3.1298,3.1298c0,1.72855 -1.40125,3.1298 -3.1298,3.1298z" id="CompoundPath 1"/><path d="" id="element-237"/></g></g></g></g><g id="Layer2 1" fill-rule="nonzero"><path d="M159.41105,1419.01889c-55.18947,48.28297 -122.76958,82.80723 -193.13274,103.0434c-20.92088,6.01676 -81.0599,19.81963 -81.87036,-18.16824c-0.60129,-28.18366 31.06652,-48.46773 51.50757,-61.64593c56.79663,-36.61646 119.9229,-63.42964 179.31859,-95.48661" id="Path 1 1" fill="#1a1a1a" stroke="#1a1a1a" stroke-width="1" stroke-linecap="round" stroke-linejoin="round"/><path d="M398.16838,1398.42084c32.79367,-65.58733 82.26564,-123.13316 139.72434,-168.50908c17.08405,-13.49149 67.51645,-49.04134 82.65282,-14.18987c11.22985,25.85674 -10.39753,56.62281 -24.32537,76.56061c-38.69934,55.39842 -86.96942,104.1208 -129.80092,156.28362" id="element-238" fill="#1a1a1a" stroke="#1a1a1a" stroke-width="1" stroke-linecap="round" stroke-linejoin="round"/><path d="M269.05146,1057.03395c-104.70948,0 -188.88694,83.91387 -188.88694,188.30123c0,103.34689 84.17748,187.25965 188.88694,187.25965c103.6794,0 187.86161,-83.91276 187.86161,-187.25965c0,-104.39771 -84.18221,-188.30123 -187.86161,-188.30123z" id="element-239" fill="#1a1a1a" stroke="none" stroke-width="12.87811" stroke-linecap="butt" stroke-linejoin="miter"/><path d="M281.55114,1290.43047c-158.08598,0 -230.38027,132.95041 -230.38027,290.55004c0,156.0288 72.29429,276.45602 230.38027,276.45602c156.53079,0 207.55292,-109.44701 207.55292,-265.47581c0,-157.61529 -51.02215,-301.53024 -207.55292,-301.53024z" id="element-240" fill="#1a1a1a" stroke="#1a1a1a" stroke-width="12.87811" stroke-linecap="butt" stroke-linejoin="miter"/><path d="M105.62721,1590.4757c0,151.78279 81.67209,240.38887 177.77602,240.38887c95.15847,0 168.00937,-88.6061 168.00937,-240.38887c0,-153.32606 -77.26367,-276.55288 -172.42216,-276.55288c-96.10391,0 -173.36323,123.24204 -173.36323,276.55288z" id="element-241" fill="#ffffff" stroke="none" stroke-width="12.87811" stroke-linecap="butt" stroke-linejoin="miter"/><path d="M135.58296,1271.12868c8.33215,0 16.62112,-0.01658 24.93045,-0.70259" id="element-242" fill-opacity="0" fill="#ff4878" stroke="#000000" stroke-width="2" stroke-linecap="round" stroke-linejoin="round"/><path d="M164.62013,1285.23245c7.21469,-1.99784 14.43048,-3.95058 21.7392,-5.57704" id="element-243" fill-opacity="0.05" fill="#ff94b0" stroke="#000000" stroke-width="2" stroke-linecap="round" stroke-linejoin="round"/><path d="M145.53857,1266.15089c5.84592,-0.14648 11.62682,-0.37841 17.45466,-0.80642" id="element-244" fill="#ff94b0" stroke="#000000" stroke-width="2" stroke-linecap="round" stroke-linejoin="round"/><path d="M150.51636,1287.72134c9.21778,-1.93381 18.36669,-4.17715 27.58775,-6.10257" id="element-245" fill="#ff94b0" stroke="#000000" stroke-width="2" stroke-linecap="round" stroke-linejoin="round"/><path d="M273.0227,1174.18509c-78.93379,0 -142.38979,47.80004 -142.38979,107.26241c0,58.86972 63.456,106.66909 142.38979,106.66909c78.15727,0 141.61681,-47.7994 141.61681,-106.66909c0,-59.46829 -63.45957,-107.26241 -141.61681,-107.26241z" id="element-246" fill="#ffffff" stroke="none" stroke-width="12.87811" stroke-linecap="butt" stroke-linejoin="miter"/><path d="M274.45759,1110.93537c-71.57514,0 -129.11546,53.71588 -129.11546,120.53746c0,66.15556 57.54029,119.87071 129.11546,119.87071c70.87102,0 128.41454,-53.71515 128.41454,-119.87071c0,-66.82821 -57.54352,-120.53746 -128.41454,-120.53746z" id="element-247" fill="#ffffff" stroke="none" stroke-width="12.87811" stroke-linecap="butt" stroke-linejoin="miter"/><path d="M208.68919,1843.26704c-13.50696,-2.33175 -26.6249,8.23448 -29.30048,23.73311c-2.64929,15.34614 6.16664,29.69964 19.67358,32.03144c13.64427,2.35547 26.76114,-8.21171 29.41043,-23.55782c2.6756,-15.49861 -6.14059,-29.85149 -19.78353,-32.20674z" id="element-248" fill="#ff8800" stroke="none" stroke-width="12.87811" stroke-linecap="butt" stroke-linejoin="miter"/><path d="M150.09379,1880.42951c39.14089,6.75709 74.42117,13.16641 78.38469,-9.79274c4.00387,-23.19259 -24.55862,-47.31866 -63.69951,-54.07572c-39.52977,-6.82422 -74.52658,6.33163 -78.53004,29.52193c-3.96357,22.95917 24.31508,27.52231 63.84485,34.34653z" id="element-249" fill="#ff8800" stroke="none" stroke-width="12.87811" stroke-linecap="butt" stroke-linejoin="miter"/><path d="M84.22358,1853.01088c-2.64929,15.34615 6.69594,29.79104 20.85475,32.23535c14.30277,2.46916 27.94888,-8.00666 30.59815,-23.35279c2.6756,-15.49861 -6.66988,-29.94288 -20.97124,-32.41177c-14.15883,-2.4443 -27.80606,8.0306 -30.48166,23.52921z" id="element-250" fill="#ff8800" stroke="none" stroke-width="12.87811" stroke-linecap="butt" stroke-linejoin="miter"/><path d="M130.98825,1864.74332c-2.64929,15.34614 7.22524,29.8824 22.03594,32.43926c14.96129,2.58285 29.13665,-7.8016 31.78593,-23.14773c2.6756,-15.49861 -7.1992,-30.03422 -22.15901,-32.61682c-14.81072,-2.55686 -28.98726,7.82666 -31.66286,23.32529z" id="element-251" fill="#ff8800" stroke="none" stroke-width="12.87811" stroke-linecap="butt" stroke-linejoin="miter"/><path d="M331.89816,1875.23183c2.15247,15.26245 15.33377,26.04226 29.4154,24.05631c14.22478,-2.00613 23.90945,-16.01077 21.75696,-31.27322c-2.17388,-15.4141 -15.3552,-26.19315 -29.5786,-24.18723c-14.08163,1.98596 -23.76763,15.99006 -21.59376,31.40414z" id="element-252" fill="#ff8800" stroke="none" stroke-width="12.87811" stroke-linecap="butt" stroke-linejoin="miter"/><path d="M410.10641,1896.01113c14.8797,-2.09848 25.09071,-16.17736 22.93824,-31.43979c-2.17388,-15.41409 -15.88167,-26.11895 -30.7599,-24.02067c-14.72993,2.0774 -24.94232,16.15573 -22.76847,31.56979c2.15247,15.26244 15.86024,25.96802 30.59012,23.89066z" id="element-253" fill="#ff8800" stroke="none" stroke-width="12.87811" stroke-linecap="butt" stroke-linejoin="miter"/><path d="M454.04603,1883.80714c13.5699,-1.9138 22.72816,-15.84415 20.57571,-31.1066c-2.17388,-15.41409 -14.82878,-26.2674 -28.39735,-24.35382c-13.43331,1.89454 -22.59289,15.82434 -20.41901,31.23844c2.15247,15.26245 14.80735,26.11648 28.24065,24.22198z" id="element-254" fill="#ff8800" stroke="none" stroke-width="12.87811" stroke-linecap="butt" stroke-linejoin="miter"/><path d="M331.70797,1868.09049c3.22028,22.83396 31.24817,18.56722 70.56236,13.02268c38.92746,-5.48995 74.11188,-10.13813 70.89157,-32.97205c-3.25304,-23.06614 -37.47451,-37.14656 -76.40193,-31.65658c-39.3142,5.54452 -68.30473,28.54215 -65.05201,51.60596z" id="element-255" fill="#ff8800" stroke="none" stroke-width="12.87811" stroke-linecap="butt" stroke-linejoin="miter"/><path d="M192.12942,1136.45629c25.59977,-17.03408 57.29255,2.99749 58.24919,36.57425c0.61302,21.51654 -5.77916,41.01713 -3.73935,63.10675c1.62253,17.57075 8.42243,40.07475 30.4323,35.30192c20.6062,-4.46847 23.81318,-24.86156 24.60218,-43.4821c1.21597,-28.69658 -13.0414,-65.1598 15.95502,-86.14396c3.89093,-2.81577 7.71681,-4.17956 12.26946,-5.78956c7.08866,-1.77034 16.65105,-1.93901 23.69797,0.80278c6.02398,2.34377 11.80954,7.45872 18.69214,4.35909c20.19617,-9.09551 13.76511,-35.60009 -3.97724,-42.40473c-42.98438,-16.4856 -95.96484,-7.40457 -141.05929,-10.57975c-19.51692,-1.37422 -41.58999,-4.31087 -55.54546,12.20738" id="element-256" fill="#1a1a1a" stroke="#1a1a1a" stroke-width="1" stroke-linecap="round" stroke-linejoin="round"/><path d="M275.68716,1291.58767c-20.88234,0 -36.69492,-13.03406 -39.68807,-27.99007c0,-20.61061 18.80572,-24.91342 39.68807,-24.91342c20.67689,0 39.37809,4.30281 39.37809,24.91342c-0.47815,12.69155 -18.70118,27.99007 -39.37809,27.99007z" id="element-257" fill="#ff8800" stroke="none" stroke-width="12.87811" stroke-linecap="butt" stroke-linejoin="miter"/><path d="M243.21181,1258.528c8.90677,25.34678 55.8179,25.2946 64.16286,2.87789" id="element-258" fill-opacity="0" fill="#c17508" stroke="#a87100" stroke-width="1" stroke-linecap="round" stroke-linejoin="round"/><path d="M181.2229,1223.15897c8.09551,-12.88134 25.1924,-15.13943 37.19843,-1.11118" id="element-259" fill-opacity="0" fill="#000000" stroke="#000000" stroke-width="1" stroke-linecap="round" stroke-linejoin="round"/><path d="M330.08193,1223.15897c8.09551,-12.88134 25.1924,-15.13943 37.19843,-1.11118" id="element-260" fill-opacity="0" fill="#000000" stroke="#000000" stroke-width="1" stroke-linecap="round" stroke-linejoin="round"/><path d="M168.55675,1818.53932c-11.1507,-2.3265 -35.05364,-3.77037 -46.0458,-1.07597c-16.4777,4.79532 -32.28461,13.89631 -35.89197,32.24335c-5.58953,28.42847 21.0422,49.68717 44.11397,27.90351c9.80387,21.20121 33.12458,28.40066 49.74485,8.58864c9.81247,16.11543 32.97888,17.20987 44.31757,1.70597c8.18445,-11.19097 6.72129,-25.39693 0.81793,-37.05603c-13.81455,-19.848 -47.45285,-32.21388 -70.7595,-34.05743" id="element-261" fill-opacity="0" fill="#000000" stroke="#000000" stroke-width="2" stroke-linecap="round" stroke-linejoin="round"/><path d="M380.21608,1820.07299c-26.05232,9.31929 -59.83244,31.58862 -45.46853,64.39935c8.99048,20.53651 38.20704,18.81117 48.08545,0.34668c15.06141,13.82575 43.84962,15.1348 50.1729,-9.20862c16.39034,12.558 40.92978,6.62373 41.58611,-16.89501c2.36207,-47.87092 -64.94637,-45.85617 -94.37594,-38.64241z" id="element-262" fill-opacity="0" fill="#000000" stroke="#000000" stroke-width="2" stroke-linecap="round" stroke-linejoin="round"/></g></g></g></g></svg>